<?xml version="1.0" encoding="UTF-8" standalone="no"?>
<svg
   width="520"
   height="240"
   version="1.1"
   viewBox="0 0 137.58 63.5"
   id="svg65"
   sodipodi:docname="foreign-languages.svg"
   inkscape:version="1.1 (c68e22c387, 2021-05-23)"
   xmlns:inkscape="http://www.inkscape.org/namespaces/inkscape"
   xmlns:sodipodi="http://sodipodi.sourceforge.net/DTD/sodipodi-0.dtd"
   xmlns="http://www.w3.org/2000/svg"
   xmlns:svg="http://www.w3.org/2000/svg">
  <sodipodi:namedview
     id="namedview67"
     pagecolor="#ffffff"
     bordercolor="#666666"
     borderopacity="1.0"
     inkscape:pageshadow="2"
     inkscape:pageopacity="0.0"
     inkscape:pagecheckerboard="0"
     showgrid="false"
     inkscape:zoom="2.2583333"
     inkscape:cx="136.16236"
     inkscape:cy="120"
     inkscape:window-width="3840"
     inkscape:window-height="2087"
     inkscape:window-x="1920"
     inkscape:window-y="0"
     inkscape:window-maximized="1"
     inkscape:current-layer="svg65" />
  <defs
     id="defs29">
    <clipPath
       id="clipPath301434">
      <rect
         y="-3.9777e-7"
         width="137.58"
         height="63.5"
         fill="#a0a0ff"
         fill-opacity=".66627"
         fill-rule="evenodd"
         id="rect26" />
    </clipPath>
  </defs>
  <g
     id="g1521"
     transform="scale(1.0000242,1)"
     style="stroke-width:0.999988"
     inkscape:export-filename="/home/joshua/Code/Personal/Koto/data/genres/foreign-language.png"
     inkscape:export-xdpi="96.0084"
     inkscape:export-ydpi="96.0084">
    <rect
       y="0"
       width="137.58"
       height="63.5"
       fill="#a0a0ff"
       fill-rule="evenodd"
       id="rect31"
       x="0"
       style="stroke-width:0.999976" />
    <g
       clip-path="url(#clipPath301434)"
       id="g53"
       style="stroke-width:0.999988">
      <g
         id="g43"
         style="stroke-width:0.999988">
        <path
           d="m 141.34,38.614 h -38.032 c -1.9369,0 -3.5071,1.5702 -3.5071,3.5071 v 18.824 c 0,1.9369 1.5702,3.5066 3.5071,3.5066 h 22.416 l 6.1064,11.291 v -11.291 h 9.5088 c 1.9369,0 3.5071,-1.5697 3.5071,-3.5066 v -18.824 c 0,-1.9369 -1.5702,-3.5071 -3.5071,-3.5071"
           fill="#f99746"
           id="path33"
           style="stroke-width:0.999976" />
        <path
           d="m 101.58,0.73638 h 34.001 c 1.7314,0 3.1353,1.6392 3.1353,2.9966 v 11.868 c 0,2.0377 -1.4039,3.2468 -3.1353,3.2468 h -20.04 l -5.4593,7.9149 v -7.9149 h -8.5011 c -1.7314,0 -3.1353,-1.1001 -3.1353,-2.4582 v -12.051 c 0,-2.2834 1.4038,-3.6022 3.1353,-3.6022"
           fill="#c0d8fb"
           id="path35"
           style="stroke-width:0.999976" />
        <path
           d="M 37.569,1.5124 H 7.089 c -1.5522,0 -2.8106,1.2578 -2.8106,2.8104 v 15.087 c 0,1.5518 1.2584,2.8104 2.8106,2.8104 h 17.965 l 4.8943,9.0492 v -9.0492 h 7.6204 c 1.5526,0 2.8104,-1.2586 2.8104,-2.8104 V 4.3228 c 0,-1.5526 -1.2578,-2.8104 -2.8104,-2.8104"
           fill="#ebf3fa"
           id="path37"
           style="stroke-width:0.999976" />
        <path
           d="m 21.158,14.314 c -0.20383,-1.0087 -0.82632,-2.5543 -1.4703,-3.7031 l 0.63324,-0.22511 c 0.6761,1.1487 1.3093,2.6618 1.5239,3.6706 z m -3.8958,-3.6172 c -0.03218,0.0758 -0.10737,0.11835 -0.23609,0.11835 -0.34339,1.3205 -0.9337,2.7261 -1.6099,3.5847 -0.13947,-0.11835 -0.39707,-0.27926 -0.56888,-0.36512 0.65467,-0.81534 1.2129,-2.2 1.5455,-3.5739 z m 3.4344,-0.35352 c 0.08578,-0.39761 0.19316,-0.99868 0.28978,-1.5781 h -2.1358 v 6.2674 c 0,0.7728 -0.27903,0.91281 -1.7815,0.91281 -0.04293,-0.21505 -0.1503,-0.52602 -0.26835,-0.7403 0.26835,0.01002 0.52595,0.01002 0.72978,0.01002 h 0.42941 c 0.13939,0 0.18241,-0.04254 0.18241,-0.18256 v -6.2674 h -1.728 c -0.32188,0.78362 -0.69753,1.4922 -1.1054,2.0283 -0.12881,-0.12841 -0.37564,-0.34346 -0.54745,-0.44016 0.77272,-0.9979 1.406,-2.6827 1.7709,-4.3676 l 0.89084,0.23594 c -0.02143,0.075032 -0.09655,0.11835 -0.23617,0.10753 -0.13947,0.59023 -0.31121,1.1913 -0.51512,1.7599 h 4.7438 l 0.37557,0.010777 c 0,0.18256 -0.2576,1.5881 -0.48301,2.3609 z m -7.3517,-0.2576 c -0.35422,0.62195 -0.72986,1.1913 -1.1163,1.674 -0.09662,-0.15007 -0.32188,-0.42933 -0.46151,-0.5794 1.0089,-1.2021 1.9748,-3.2412 2.5866,-5.227 l 0.89084,0.26843 c -0.04301,0.10753 -0.13964,0.12841 -0.2576,0.11835 -0.28986,0.85866 -0.63324,1.7274 -1.0196,2.5435 l 0.31128,0.085872 c -0.02158,0.064217 -0.0752,0.11758 -0.21474,0.12841 v 6.826 h -0.71896 v -5.8381"
           fill="#2b478b"
           opacity="0.54345"
           id="path39"
           style="stroke-width:0.999976" />
        <path
           d="m 33.617,10.751 v 0.69776 h -2.586 v 3.5522 c 0,0.82617 -0.32258,0.95535 -2.2217,0.93369 -0.04332,-0.19339 -0.1609,-0.50437 -0.26843,-0.71942 0.5152,0.01078 0.98707,0.02166 1.288,0.02166 0.36512,0 0.47187,0 0.47187,-0.22511 v -3.563 h -2.6294 v -0.69776 h 2.6294 v -1.8248 l 0.35429,0.021655 c 0.55852,-0.47265 1.1487,-1.148 1.5881,-1.749 h -4.1316 v -0.67688 h 4.6793 l 0.13924,-0.042537 0.56934,0.35429 c -0.03248,0.053389 -0.10753,0.085872 -0.17173,0.10753 -0.55852,0.79368 -1.4814,1.8132 -2.2967,2.4785 v 1.3313 z M 25.4284,8.9053 c -0.22534,0.9979 -0.47218,2.0066 -0.6976,2.887 0.45068,0.24677 0.91227,0.54691 1.3629,0.84783 0.42964,-0.99868 0.74062,-2.2433 0.89069,-3.7348 z m 1.932,-0.70859 0.40767,0.10753 -0.06422,0.15007 c -0.15084,1.8991 -0.49353,3.4238 -1.0304,4.6151 0.52602,0.40767 0.97624,0.80451 1.2663,1.1696 l -0.44016,0.59023 c -0.26842,-0.34346 -0.67609,-0.73025 -1.148,-1.1163 -0.54761,0.9979 -1.2666,1.7281 -2.1253,2.2433 -0.09662,-0.18256 -0.30053,-0.44016 -0.45068,-0.59023 0.8049,-0.42933 1.481,-1.1271 2.0176,-2.0933 -0.39707,-0.30014 -0.81565,-0.5794 -1.2235,-0.82617 l -0.12879,0.47188 -0.61174,-0.32181 c 0.26828,-0.94452 0.60099,-2.3076 0.91227,-3.6915 h -1.0733 V 8.22824 h 1.2235 c 0.17173,-0.80451 0.32188,-1.5773 0.45068,-2.2642 l 0.88009,0.10753 c -0.01078,0.075032 -0.07503,0.11758 -0.21459,0.12841 -0.11804,0.61189 -0.26827,1.3096 -0.42925,2.0283 h 1.6525 l 0.12919,-0.031709"
           fill="#2b478b"
           opacity="0.54345"
           id="path41"
           style="stroke-width:0.999976" />
      </g>
      <text
         x="107.10843"
         y="11.536377"
         fill="#333333"
         font-family="sans-serif"
         font-size="6.7091px"
         letter-spacing="0px"
         opacity="0.53934"
         stroke-width="0.264577px"
         word-spacing="0px"
         style="line-height:4.19317px"
         xml:space="preserve"
         id="text47"><tspan
           x="107.10843"
           y="11.536377"
           fill="#333333"
           font-family="'Noto Sans'"
           font-size="6.7091px"
           font-stretch="condensed"
           font-weight="bold"
           stroke-width="0.264577px"
           id="tspan45">Bonjour</tspan></text>
      <text
         x="111.31922"
         y="55.259583"
         fill="#5a5a5a"
         font-family="sans-serif"
         font-size="9.9404px"
         letter-spacing="0px"
         opacity="0.48424"
         stroke-width="0.264577px"
         word-spacing="0px"
         style="line-height:6.21273px"
         xml:space="preserve"
         id="text51"><tspan
           x="111.31922"
           y="55.259583"
           fill="#5a5a5a"
           font-family="'Noto Sans'"
           font-size="9.9404px"
           font-stretch="condensed"
           font-weight="bold"
           stroke-width="0.264577px"
           id="tspan49">Hello</tspan></text>
    </g>
    <rect
       y="0"
       width="137.58"
       height="63.5"
       fill="#a0a0ff"
       fill-opacity="0.66627"
       fill-rule="evenodd"
       id="rect55"
       x="0"
       style="stroke-width:0.999976" />
  </g>
</svg>
