<?xml version="1.0" encoding="UTF-8"?>
<svg width="24" height="24" version="1.1" viewBox="0 0 6.35 6.35" xmlns="http://www.w3.org/2000/svg">
<g transform="translate(0 -11.25)">
<g transform="matrix(.99913 0 0 1 -320.37 -265.83)" opacity=".996">
<path d="m326.82 277.26 0.18709 2.4322-2.4322-0.18709 0.74834-0.74833a2.1167 2.1167 0 0 0-2.9934-1e-5 2.1167 2.1167 0 0 0 0 2.9934 2.1167 2.1167 0 0 0 2.9934 1e-5l0.74836 0.74835a3.175 3.175 0 0 1-4.4901-3e-5 3.175 3.175 0 0 1-2e-5 -4.4901 3.175 3.175 0 0 1 4.4902-1e-5z" fill="#666" opacity=".998" stroke-width=".2647"/>
<path d="m323.85 279.32v1.12s-0.43968 0.4382-0.54774 0.54625" fill="none" opacity=".998" stroke="#666" stroke-linecap="round" stroke-width=".7941"/>
</g>
</g>
</svg>
