<?xml version="1.0" encoding="UTF-8" standalone="no"?>
<svg
   width="520"
   height="240"
   version="1.1"
   viewBox="0 0 137.58 63.5"
   id="svg296"
   sodipodi:docname="mystery-and-thriller.svg"
   inkscape:version="1.1 (c68e22c387, 2021-05-23)"
   xmlns:inkscape="http://www.inkscape.org/namespaces/inkscape"
   xmlns:sodipodi="http://sodipodi.sourceforge.net/DTD/sodipodi-0.dtd"
   xmlns="http://www.w3.org/2000/svg"
   xmlns:svg="http://www.w3.org/2000/svg">
  <sodipodi:namedview
     id="namedview298"
     pagecolor="#ffffff"
     bordercolor="#666666"
     borderopacity="1.0"
     inkscape:pageshadow="2"
     inkscape:pageopacity="0.0"
     inkscape:pagecheckerboard="0"
     showgrid="false"
     inkscape:zoom="2.2583333"
     inkscape:cx="136.16236"
     inkscape:cy="120"
     inkscape:window-width="3840"
     inkscape:window-height="2087"
     inkscape:window-x="1920"
     inkscape:window-y="0"
     inkscape:window-maximized="1"
     inkscape:current-layer="svg296" />
  <defs
     id="defs72">
    <clipPath
       id="clipPath302672">
      <rect
         x="15.037"
         y="6.529"
         width="114.27"
         height="52.739"
         fill="#333"
         fill-rule="evenodd"
         opacity=".56765"
         id="rect69" />
    </clipPath>
  </defs>
  <g
     id="g1377"
     transform="scale(1.000023,0.99999772)"
     style="stroke-width:0.999989"
     inkscape:export-filename="/home/joshua/Code/Personal/Koto/data/genres/mystery-and-thriller.png"
     inkscape:export-xdpi="96.0084"
     inkscape:export-ydpi="96.0084">
    <rect
       x="0.0054583"
       y="0.065999985"
       width="137.58"
       height="63.5"
       fill="#333333"
       fill-rule="evenodd"
       id="rect74"
       style="stroke-width:0.999978" />
    <g
       transform="matrix(1.204,0,0,1.204,-18.1,-7.7951)"
       clip-path="url(#clipPath302672)"
       stroke-width="0.830531"
       id="g284">
      <g
         stroke-width="0.830531"
         id="g266">
        <path
           d="m 130.09,41.568 c 0.14098,0.10843 2.3979,1.8472 2.5041,2.1724 0.10831,0.32528 -0.8044,3.3497 -1.3399,4.2255 -0.0152,0.02595 -0.0325,0.05201 -0.0476,0.07379 -1.7019,2.6623 -4.438,4.8715 -7.8071,6.3197 1.6563,-1.8731 2.5127,-4.9604 2.5127,-4.9604 l -1.0428,-3.6921 2.387,-0.55303 0.49429,-2.6926 c -0.53762,-1.4808 -1.7778,-2.5084 -1.7778,-2.5084 -0.26226,-0.35552 -0.55499,-0.70895 -0.86939,-1.0341 0,0 6.0706,2.4368 7.9914,3.6401 h 0.002 c -0.0108,0.15615 -0.0282,0.30791 -0.0476,0.46174 l -2.9594,-1.4525"
           fill="#2c2c2c"
           id="path76"
           style="stroke-width:0.830522" />
        <path
           d="m 130.09,41.568 2.9594,1.4525 c -0.21246,1.7584 -0.83476,3.4257 -1.7952,4.9454 0.53554,-0.87588 1.4482,-3.9003 1.3399,-4.2255 -0.10623,-0.32517 -2.3632,-2.0639 -2.5041,-2.1724"
           fill="#878787"
           id="path78"
           style="stroke-width:0.830522" />
        <path
           d="m 128.21,21.038 c 1.4786,0.45097 3.2932,1.7345 3.2196,3.1805 0,0 -0.35992,-0.73281 -1.3161,-1.7345 -0.89534,-0.93878 -1.7951,-1.3918 -1.9035,-1.446"
           fill="#1e1e1e"
           id="path80"
           style="stroke-width:0.830522" />
        <path
           d="m 131.43,24.219 c 0.0737,-1.446 -1.741,-2.7296 -3.2196,-3.1805 -0.004,-0.0021 -0.007,-0.0021 -0.0109,-0.0043 0,0 0.004,0.0022 0.0109,0.0043 0.10842,0.05421 1.0082,0.50727 1.9035,1.446 0.95615,1.0017 1.3161,1.7345 1.3161,1.7345 z m -2.0163,2.8184 c -0.16044,0.07588 -5.3876,2.5193 -15.395,2.5193 v -4.2298 c 3.3345,0 6.4196,-0.48781 8.3427,-1.2857 1.8385,-0.76305 2.7209,-1.4655 2.736,-1.7344 0.0152,-0.27107 -1.2314,-0.48352 -1.2314,-0.48352 l -0.0196,0.0022 c -0.0672,-0.53333 -0.15824,-1.1078 -0.25798,-1.704 -0.013,-0.07159 -0.0259,-0.14527 -0.039,-0.21906 l 0.28185,-0.0065 c 8.219,0.54202 9.0712,4.1302 7.367,6.2375 -1.006,1.2445 -2.6992,2.4888 -6.3437,3.2997 -0.0888,0.01946 -0.1799,0.03904 -0.27096,0.0585 -0.50089,0.10634 -1.0363,0.20388 -1.6109,0.29273 -2.3003,0.35552 -5.2206,0.56588 -8.9541,0.56588 v -0.38158 c 9.0993,0 13.108,-1.4049 15.395,-2.9312"
           fill="#2c2c2c"
           id="path82"
           style="stroke-width:0.830522" />
        <path
           d="m 126.82,44.722 h 0.002 c 0.38586,-1.3984 0.60052,-2.3502 0.60052,-2.3502 0,0 -0.5616,-1.2076 -1.4591,-2.4196 0,0 1.2402,1.0276 1.7778,2.5084 l -0.4943,2.6926 -2.387,0.55303 1.0428,3.6921 c 0,0 -0.85641,3.0873 -2.5127,4.9604 -0.27964,0.12141 -0.56368,0.2363 -0.85202,0.34472 1.1577,-1.3072 2.1874,-3.6185 2.9983,-5.8883 -0.0152,-0.03695 -1.3246,-3.2955 -1.3246,-3.2955 l 0.76745,-0.23423 1.8407,-0.56357"
           fill="#1e1e1e"
           id="path84"
           style="stroke-width:0.830522" />
        <path
           d="m 125.1,48.82 c -0.0411,0.02815 -0.68508,0.43788 -2.1875,-0.34254 -1.5935,-0.82826 -1.5935,-4.49 -1.5935,-4.49 0.0305,3.1805 -0.78911,8.8651 -1.8428,11.642 -0.0607,0.01516 -0.1236,0.02815 -0.18639,0.04114 0.54423,-2.3284 1.4027,-9.1577 1.6326,-14.329 0.078,-1.728 0.0846,-3.2695 -0.0152,-4.3968 0.45306,-0.63087 0.77394,-1.1707 0.86059,-1.496 1.2272,1.6737 3.3345,3.4689 3.3345,3.4689 0.31439,0.32517 0.60712,0.6786 0.86939,1.0341 0.89753,1.2119 1.4591,2.4196 1.4591,2.4196 0,0 -0.21465,0.95175 -0.60052,2.3502 h -0.002 l -1.8407,0.56357 -2.9745,-4.2991 c 0.0824,0.14526 1.4113,2.4822 2.207,4.5333 0,0 1.3095,3.2585 1.3246,3.2955 -0.81089,2.2698 -1.8406,4.5811 -2.9983,5.8883 l -0.002,0.0021 c -0.17561,0.06733 -0.35563,0.13244 -0.53553,0.1952 0.9865,-1.3896 2.1528,-3.3908 3.0916,-6.0813"
           fill="#2c2c2c"
           id="path86"
           style="stroke-width:0.830522" />
        <g
           fill="#1e1e1e"
           id="g94"
           style="stroke-width:0.830522">
          <path
             d="m 114.02,29.557 c 10.008,0 15.235,-2.4434 15.395,-2.5193 -2.2873,1.5263 -6.296,2.9312 -15.395,2.9312 v -0.41193"
             id="path88"
             style="stroke-width:0.830531" />
          <path
             d="m 123.87,21.823 c 0,0 1.2466,0.21245 1.2314,0.48352 -0.0152,0.26887 -0.89753,0.97133 -2.736,1.7344 -1.9231,0.79791 -5.0082,1.2857 -8.3427,1.2857 v -0.40544 c 7.625,0 9.9123,-2.3307 9.9123,-2.3307 -0.0217,-0.24489 -0.0498,-0.50078 -0.0846,-0.76525 l 0.0196,-0.0022"
             id="path90"
             style="stroke-width:0.830531" />
          <path
             d="m 122.01,40.987 2.9745,4.2991 -0.76745,0.23423 c -0.79571,-2.0511 -2.1246,-4.3881 -2.207,-4.5333"
             id="path92"
             style="stroke-width:0.830531" />
        </g>
        <path
           d="m 124.83,29.633 c -0.16693,1.1642 -0.71764,1.9599 -2.0358,2.244 0,0 1.0082,-0.78054 1.2423,-1.0776 0.54643,-0.69377 0.54643,-1.3074 0.54643,-1.3074 0.0911,-0.01946 0.1821,-0.03904 0.27095,-0.0585 -0.006,0.06719 -0.0152,0.13449 -0.0239,0.19948"
           fill="#878787"
           id="path96"
           style="stroke-width:0.830522" />
        <path
           d="m 122.91,48.477 c 1.5025,0.78042 2.1464,0.37069 2.1875,0.34254 -0.93877,2.6905 -2.1051,4.6917 -3.0916,6.0813 -0.81309,0.28626 -1.6607,0.53125 -2.5323,0.72854 1.0537,-2.7773 1.8733,-8.4619 1.8428,-11.642 0,0 0,3.6617 1.5935,4.49"
           fill="#2c2c2c"
           id="path98"
           style="stroke-width:0.830522" />
        <path
           d="m 124.59,29.492 c 0,0 0,0.61361 -0.54643,1.3074 -0.23411,0.29702 -1.2423,1.0776 -1.2423,1.0776 -0.0824,0.01726 -0.16692,0.03464 -0.25577,0.04761 0.15823,-0.75876 0.29481,-1.4374 0.36849,-1.8189 0.0412,-0.20388 0.0651,-0.32088 0.0651,-0.32088 0.57457,-0.08885 1.11,-0.18639 1.6109,-0.29273"
           fill="#1e1e1e"
           id="path100"
           style="stroke-width:0.830522" />
        <path
           d="m 115.13,21.015 c 4.774,-0.16264 7.5469,-1.342 8.3167,-1.7193 0.0237,0.13229 0.0476,0.26226 0.0715,0.39235 -0.85201,0.51827 -2.0987,0.89117 -3.6032,1.1838 0,0 1.5848,0.34254 3.6791,-0.75007 0.0997,0.59624 0.19079,1.1707 0.25798,1.704 0.0348,0.26446 0.0629,0.52036 0.0846,0.76525 0,0 -2.2873,2.3307 -9.9123,2.3307 v -3.8873 c 0.3795,0 0.74799,-0.0065 1.1057,-0.01946"
           fill="#4d4d4d"
           id="path102"
           style="stroke-width:0.830522" />
        <path
           d="m 123.55,19.902 c 0.0131,0.07379 0.0261,0.14747 0.039,0.21906 -2.0943,1.0926 -3.6791,0.75007 -3.6791,0.75007 1.5046,-0.29262 2.7512,-0.66551 3.6032,-1.1838 0.013,0.07159 0.0239,0.14318 0.0368,0.21465"
           fill="#2c2c2c"
           id="path104"
           style="stroke-width:0.830522" />
        <path
           d="m 123.35,18.777 c 0.0325,0.17341 0.0651,0.34683 0.0955,0.51816 -0.76977,0.3773 -3.5427,1.5567 -8.3167,1.7193 5.0733,-0.51827 6.9551,-1.548 8.2212,-2.2375"
           fill="#1e1e1e"
           id="path106"
           style="stroke-width:0.830522" />
        <path
           d="m 122.3,12.542 c 0.15604,1.7301 0.63516,4.0499 1.0428,6.2353 -1.2661,0.68949 -3.148,1.7192 -8.2212,2.2375 -0.35772,0.01297 -0.72621,0.01946 -1.1057,0.01946 v -8.5594 c 3.432,0 3.677,-2.0185 3.677,-2.0185 -0.71973,0.51388 -1.4786,0.96484 -3.677,0.96484 v -0.26887 c 0.45538,0.02386 1.1405,0.0065 1.9275,-0.22554 0.89973,-0.26226 1.548,-0.68926 1.9294,-0.98639 0.63967,-0.023872 1.4375,0.0044 2.9897,1.1209 0.68301,0.49221 1.1405,1.0472 1.4375,1.4808 z m -2.1139,-1.2791 c 0.0629,0.0563 1.0602,0.94955 1.2987,1.8818 0.245,0.96473 0.9192,4.284 0.9192,4.284 l -0.40325,-4.529 c 0,0 -0.33814,-0.85201 -1.8146,-1.6368"
           fill="#2c2c2c"
           id="path108"
           style="stroke-width:0.830522" />
        <path
           d="m 122.97,29.784 c 0,0 -0.0239,0.117 -0.0651,0.32088 0,0 -0.53114,1.3138 -0.92789,2.5669 -0.4943,0.22554 -0.99728,0.24292 -2.4,0.26887 -1.8169,0.03255 -2.3328,0.39235 -3.0504,0.41413 -0.71764,0.02155 -1.5025,-0.83047 -2.5106,-0.83047 v -2.1745 c 3.7334,0 6.6538,-0.21037 8.9541,-0.56588"
           fill="#1e1e1e"
           id="path110"
           style="stroke-width:0.830522" />
        <path
           d="m 122.91,30.105 c -0.0737,0.38158 -0.21026,1.0602 -0.36849,1.8189 -0.0326,0.16056 -0.0672,0.32517 -0.10195,0.49001 -0.16692,0.10843 -0.30999,0.19299 -0.45745,0.25798 0.39675,-1.2532 0.92789,-2.5669 0.92789,-2.5669"
           fill="#878787"
           id="path112"
           style="stroke-width:0.830522" />
        <path
           d="m 122.01,12.9 0.40325,4.529 c 0,0 -0.6742,-3.3193 -0.9192,-4.284 -0.23852,-0.93229 -1.2358,-1.8255 -1.2987,-1.8818 1.4765,0.78482 1.8146,1.6368 1.8146,1.6368"
           fill="#4d4d4d"
           id="path114"
           style="stroke-width:0.830522" />
        <path
           d="m 121.98,32.672 c 0.14746,-0.06499 0.29053,-0.14955 0.45745,-0.25798 -0.24928,1.1946 -0.52035,2.4629 -0.67431,3.0353 -0.0866,0.32528 -0.40753,0.8651 -0.86058,1.496 -0.30791,0.42919 -0.67651,0.89974 -1.0732,1.3745 -0.74799,0.89117 -1.5979,1.7974 -2.3459,2.4607 0.12361,-0.12349 1.2769,-1.2834 2.2764,-2.851 1.0581,-1.6563 1.5935,-2.5322 1.8624,-3.9241 0.0737,-0.38587 0.20597,-0.8541 0.35772,-1.3333"
           fill="#fbfbfb"
           id="path116"
           style="stroke-width:0.830522" />
        <path
           d="m 116.18,34.357 c 0.69389,0.17341 1.5134,1.3268 1.6283,2.2375 0.013,0.16913 0.013,0.27536 0.013,0.27536 0.004,-0.08897 0,-0.18002 -0.013,-0.27536 -0.0217,-0.33826 -0.0803,-0.92569 -0.24071,-1.3853 -0.20377,-0.57886 -1.11,-0.79792 -1.3876,-0.85213 z m -0.63296,7.5643 c -0.60492,0.14306 -1.2336,0.16693 -1.5242,0.16693 v -3.1415 c 0.81089,0 1.7756,-0.58755 1.8363,-0.62438 -0.0454,0.0044 -0.60481,0.07159 -1.8363,0.07159 v -0.88236 c 1.6305,0 3.1848,-0.22334 3.1848,-0.22334 -0.83684,-0.01517 -2.168,-0.35992 -2.3782,-0.34254 -0.20817,0.01726 -0.80661,0.41622 -0.80661,0.41622 v -1.7474 c 0.6808,0 0.98871,-0.27107 1.1275,-0.52256 0.8541,-0.1821 0.94736,-0.75019 0.94736,-0.75019 -0.14735,0.20168 -0.33595,0.34903 -0.83464,0.32957 0,0 -0.44877,0.62879 -1.2402,0.62879 v -2.7752 c 1.0082,0 1.793,0.85201 2.5106,0.83047 0.71764,-0.02178 1.2336,-0.38158 3.0504,-0.41413 1.4027,-0.02595 1.9057,-0.04333 2.4,-0.26887 -0.15175,0.47924 -0.28405,0.94747 -0.35772,1.3333 -0.26887,1.3919 -0.80429,2.2678 -1.8624,3.9241 -0.99948,1.5676 -2.1528,2.7275 -2.2764,2.851 -0.006,0.0044 -0.0109,0.0088 -0.0109,0.0088 -0.4812,0.42699 -0.917,0.75227 -1.2553,0.90831 -0.20596,0.09545 -0.43788,0.16913 -0.67419,0.22334"
           fill="#878787"
           id="path118"
           style="stroke-width:0.830522" />
        <path
           d="m 120.9,36.945 c 0.0997,1.1273 0.0931,2.6688 0.0152,4.3968 -0.0846,0.56148 -0.19079,1.097 -0.30362,1.5869 -0.37498,1.6305 -0.82375,2.7774 -0.82375,2.7774 -0.84344,-1.173 -2.0489,-2.2028 -2.9616,-2.8922 -0.34034,-0.25589 -0.63955,-0.46614 -0.8629,-0.6157 1.6738,-0.52685 2.6189,-1.8364 3.8635,-3.8787 0.39664,-0.47472 0.76525,-0.94526 1.0732,-1.3745"
           fill="#fbfbfb"
           id="path120"
           style="stroke-width:0.830522" />
        <path
           d="m 120.62,42.929 c 0.11283,-0.48989 0.21906,-1.0254 0.30362,-1.5869 -0.22983,5.1708 -1.0883,12 -1.6326,14.329 -0.34903,0.07597 -0.70246,0.14525 -1.0581,0.20593 1.1123,-3.0938 2.3502,-12.648 2.387,-12.948"
           fill="#878787"
           id="path122"
           style="stroke-width:0.830522" />
        <path
           d="m 119.79,45.706 c 0,0 0.44877,-1.1469 0.82374,-2.7774 -0.0368,0.29922 -1.2747,9.8538 -2.387,12.948 -0.36849,0.0629 -0.7393,0.11933 -1.1165,0.16485 0,0 -0.49001,-4.9084 -0.64605,-6.7621 -0.15835,-1.8537 -1.0407,-4.2321 -1.0407,-4.2321 l 0.81089,-1.524 0.22983,-0.27315 c 0,0 2.0401,1.2531 3.3258,2.4564"
           fill="#fbfbfb"
           id="path124"
           style="stroke-width:0.830522" />
        <path
           d="m 117.48,40.78 c 0.74799,-0.66331 1.5979,-1.5695 2.3459,-2.4607 -1.2446,2.0423 -2.1898,3.3519 -3.8635,3.8787 -0.24709,-0.16704 -0.40104,-0.26458 -0.42271,-0.27756 0.23632,-0.05421 0.46823,-0.12789 0.6742,-0.22334 0.33825,-0.15604 0.77405,-0.48132 1.2552,-0.90831 0,0 0.004,-0.0044 0.0109,-0.0088"
           fill="#2c2c2c"
           id="path126"
           style="stroke-width:0.830522" />
        <path
           d="m 117.56,35.209 c 0.16043,0.45966 0.21905,1.0471 0.24071,1.3853 -0.11491,-0.91063 -0.93437,-2.0641 -1.6283,-2.2375 0.27755,0.05421 1.1838,0.27327 1.3876,0.85213"
           fill="#2c2c2c"
           id="path128"
           style="stroke-width:0.830522" />
        <g
           fill="#1e1e1e"
           id="g136"
           style="stroke-width:0.830522">
          <path
             d="m 119.79,45.706 c -1.2857,-1.2034 -3.3258,-2.4564 -3.3258,-2.4564 l 0.36421,-0.4358 c 0.91271,0.68937 2.1182,1.7192 2.9616,2.8922"
             id="path130"
             style="stroke-width:0.830531" />
          <path
             d="m 117.7,10.456 c 0,0 -0.24501,2.0185 -3.677,2.0185 v -1.0537 c 2.1984,0 2.9573,-0.45097 3.677,-0.96484"
             id="path132"
             style="stroke-width:0.830531" />
          <path
             d="m 117.11,56.041 c -0.19079,0.02388 -0.38158,0.04542 -0.57457,0.06498 0,0 -0.24489,-5.2576 -0.54411,-7.3496 -0.29922,-2.0943 -0.9865,-3.768 -0.9865,-3.768 l 1.2293,-1.4656 -0.81089,1.524 c 0,0 0.88237,2.3785 1.0407,4.2321 0.15604,1.8537 0.64605,6.7621 0.64605,6.7621"
             id="path134"
             style="stroke-width:0.830531" />
        </g>
        <g
           fill="#2c2c2c"
           id="g144"
           style="stroke-width:0.830522">
          <path
             d="m 116.83,42.814 -0.36421,0.4358 -0.22983,0.27315 -1.2293,1.4656 h -0.98651 v -2.528 c 0.75459,0 1.392,-0.08885 1.947,-0.26226 0.22334,0.14955 0.52256,0.3598 0.8629,0.6157"
             id="path138"
             style="stroke-width:0.830531" />
          <path
             d="m 116.54,56.106 c -0.14086,0.0152 -0.28184,0.02815 -0.42271,0.03696 l -0.002,-0.03696 c 0.12141,-2.1768 -0.34034,-6.9616 -0.34034,-6.9616 0,0 -0.0477,5.8733 -0.87379,7.0721 -0.29041,0.01085 -0.58314,0.01516 -0.87807,0.01516 v -11.243 h 0.9865 c 0,0 0.68728,1.6737 0.9865,3.768 0.29922,2.0921 0.54411,7.3496 0.54411,7.3496"
             id="path140"
             style="stroke-width:0.830531" />
          <path
             d="m 117.21,37.288 c 0,0 -1.5544,0.22334 -3.1848,0.22334 v -0.14967 c 0,0 0.59844,-0.39896 0.80661,-0.41622 0.21025,-0.01738 1.5414,0.32737 2.3782,0.34254"
             id="path142"
             style="stroke-width:0.830531" />
        </g>
        <path
           d="m 115.77,49.145 c 0,0 0.46174,4.7848 0.34034,6.9616 l 0.002,0.03696 c -0.40104,0.03453 -0.80649,0.0606 -1.2163,0.07358 0.82606,-1.1989 0.87379,-7.0721 0.87379,-7.0721"
           fill="#878787"
           id="path146"
           style="stroke-width:0.830522" />
        <path
           d="m 116.1,34.341 c 0,0 -0.0933,0.56809 -0.94736,0.75019 0.11921,-0.21906 0.11272,-0.42062 0.11272,-0.42062 0.49869,0.01946 0.68729,-0.12789 0.83464,-0.32957"
           fill="#1e1e1e"
           id="path148"
           style="stroke-width:0.830522" />
        <path
           d="m 115.54,41.921 c 0.0217,0.01297 0.17562,0.11051 0.42271,0.27756 -0.555,0.17341 -1.1924,0.26226 -1.947,0.26226 v -0.37289 c 0.29065,0 0.91932,-0.02386 1.5242,-0.16693"
           fill="#1e1e1e"
           id="path150"
           style="stroke-width:0.830522" />
        <path
           d="m 114.02,38.394 c 1.2315,0 1.7909,-0.06719 1.8363,-0.07159 -0.0607,0.03684 -1.0254,0.62438 -1.8363,0.62438 v -0.5528"
           fill="#878787"
           id="path152"
           style="stroke-width:0.830522" />
        <path
           d="m 115.15,35.092 c -0.13877,0.25149 -0.44668,0.52256 -1.1275,0.52256 v -0.31439 c 0.79143,0 1.2402,-0.62879 1.2402,-0.62879 0,0 0.007,0.20156 -0.11272,0.42062"
           fill="#1e1e1e"
           id="path154"
           style="stroke-width:0.830522" />
        <path
           d="m 97.954,41.568 c -0.14086,0.10843 -2.3978,1.8472 -2.504,2.1724 -0.10838,0.32528 0.80437,3.3497 1.3398,4.2255 0.01517,0.02595 0.03254,0.05201 0.04773,0.07379 1.7019,2.6623 4.438,4.8715 7.8071,6.3197 -1.6564,-1.8731 -2.5128,-4.9604 -2.5128,-4.9604 l 1.0429,-3.6921 -2.387,-0.55303 -0.49429,-2.6926 c 0.53762,-1.4808 1.7777,-2.5084 1.7777,-2.5084 0.26239,-0.35552 0.555,-0.70895 0.86939,-1.0341 0,0 -6.0705,2.4368 -7.9914,3.6401 h -0.002 c 0.01087,0.15615 0.02814,0.30791 0.04769,0.46174 l 2.9593,-1.4525"
           fill="#2c2c2c"
           id="path156"
           style="stroke-width:0.830522" />
        <path
           d="m 97.954,41.568 -2.9593,1.4525 c 0.2125,1.7584 0.83469,3.4257 1.7951,4.9454 -0.53548,-0.87588 -1.4482,-3.9003 -1.3398,-4.2255 0.10625,-0.32517 2.3632,-2.0639 2.504,-2.1724"
           fill="#878787"
           id="path158"
           style="stroke-width:0.830522" />
        <path
           d="m 99.828,21.038 c -1.4786,0.45097 -3.2933,1.7345 -3.2196,3.1805 0,0 0.35992,-0.73281 1.316,-1.7345 0.89545,-0.93878 1.7952,-1.3918 1.9036,-1.446"
           fill="#1e1e1e"
           id="path160"
           style="stroke-width:0.830522" />
        <path
           d="m 96.608,24.219 c -0.07372,-1.446 1.741,-2.7296 3.2196,-3.1805 0.0043,-0.0021 0.0065,-0.0021 0.0109,-0.0043 0,0 -0.0044,0.0022 -0.0109,0.0043 -0.10843,0.05421 -1.0082,0.50727 -1.9036,1.446 -0.95604,1.0017 -1.316,1.7345 -1.316,1.7345 z m 7.8419,-4.0975 c 0.013,-0.07159 0.0259,-0.14527 0.0389,-0.21906 l -0.28184,-0.0065 c -8.219,0.54202 -9.071,4.1302 -7.3669,6.2375 1.006,1.2445 2.6992,2.4888 6.3436,3.2997 0.089,0.01946 0.18002,0.03904 0.27107,0.0585 0.50078,0.10634 1.0363,0.20388 1.6109,0.29273 2.3003,0.35552 5.2206,0.56588 8.954,0.56588 v -0.38158 c -9.0992,0 -13.108,-1.4049 -15.395,-2.9312 0.16032,0.07588 5.3875,2.5193 15.395,2.5193 v -4.2298 c -3.3345,0 -6.4196,-0.48781 -8.3427,-1.2857 -1.8384,-0.76305 -2.7209,-1.4655 -2.7361,-1.7344 -0.0152,-0.27107 1.2315,-0.48352 1.2315,-0.48352 l 0.0195,0.0022 c 0.0672,-0.53333 0.15823,-1.1078 0.25809,-1.704"
           fill="#2c2c2c"
           id="path162"
           style="stroke-width:0.830522" />
        <path
           d="m 101.22,44.722 h -0.002 c -0.38587,-1.3984 -0.60052,-2.3502 -0.60052,-2.3502 0,0 0.56148,-1.2076 1.459,-2.4196 0,0 -1.2401,1.0276 -1.7777,2.5084 l 0.49429,2.6926 2.387,0.55303 -1.0429,3.6921 c 0,0 0.85641,3.0873 2.5128,4.9604 0.27964,0.12141 0.56368,0.2363 0.85201,0.34472 -1.1577,-1.3072 -2.1876,-3.6185 -2.9984,-5.8883 0.0152,-0.03695 1.3246,-3.2955 1.3246,-3.2955 l -0.76745,-0.23423 -1.8406,-0.56357"
           fill="#1e1e1e"
           id="path164"
           style="stroke-width:0.830522" />
        <path
           d="m 106.03,40.987 c -0.0824,0.14526 -1.4114,2.4822 -2.2071,4.5333 0,0 -1.3095,3.2585 -1.3246,3.2955 0.81089,2.2698 1.8407,4.5811 2.9984,5.8883 l 0.002,0.0021 c 0.17561,0.06733 0.35551,0.13244 0.53542,0.1952 -0.98639,-1.3896 -2.1528,-3.3908 -3.0916,-6.0813 0.0412,0.02815 0.68509,0.43788 2.1876,-0.34254 1.5935,-0.82826 1.5935,-4.49 1.5935,-4.49 -0.0303,3.1805 0.78911,8.8651 1.8428,11.642 0.0607,0.01516 0.1236,0.02815 0.1865,0.04113 -0.54422,-2.3284 -1.4027,-9.1577 -1.6326,-14.329 -0.0781,-1.728 -0.0846,-3.2695 0.0152,-4.3968 -0.45317,-0.63087 -0.77405,-1.1707 -0.8607,-1.496 -1.2271,1.6737 -3.3345,3.4689 -3.3345,3.4689 -0.3144,0.32517 -0.60701,0.6786 -0.86939,1.0341 -0.89754,1.2119 -1.459,2.4196 -1.459,2.4196 0,0 0.21465,0.95175 0.60052,2.3502 h 0.002 l 1.8406,0.56357 2.9746,-4.2991"
           fill="#2c2c2c"
           id="path166"
           style="stroke-width:0.830522" />
        <g
           fill="#1e1e1e"
           id="g174"
           style="stroke-width:0.830522">
          <path
             d="m 114.02,29.557 c -10.008,0 -15.235,-2.4434 -15.395,-2.5193 2.2873,1.5263 6.296,2.9312 15.395,2.9312 v -0.41193"
             id="path168"
             style="stroke-width:0.830531" />
          <path
             d="m 104.17,21.823 c 0,0 -1.2467,0.21245 -1.2315,0.48352 0.0152,0.26887 0.89766,0.97133 2.7361,1.7344 1.9231,0.79791 5.0082,1.2857 8.3427,1.2857 v -0.40544 c -7.625,0 -9.9123,-2.3307 -9.9123,-2.3307 0.0218,-0.24489 0.0499,-0.50078 0.0846,-0.76525 l -0.0195,-0.0022"
             id="path170"
             style="stroke-width:0.830531" />
          <path
             d="m 106.03,40.987 -2.9746,4.2991 0.76745,0.23423 c 0.79571,-2.0511 2.1248,-4.3881 2.2071,-4.5333"
             id="path172"
             style="stroke-width:0.830531" />
        </g>
        <path
           d="m 103.21,29.633 c 0.16681,1.1642 0.71752,1.9599 2.0357,2.244 0,0 -1.008,-0.78054 -1.2423,-1.0776 -0.5463,-0.69377 -0.5463,-1.3074 -0.5463,-1.3074 -0.091,-0.01946 -0.1821,-0.03904 -0.27107,-0.0585 0.007,0.06719 0.0152,0.13449 0.024,0.19948"
           fill="#878787"
           id="path176"
           style="stroke-width:0.830522" />
        <path
           d="m 105.13,48.477 c -1.5025,0.78042 -2.1463,0.37069 -2.1876,0.34254 0.93879,2.6905 2.1052,4.6917 3.0916,6.0813 0.81309,0.28626 1.6608,0.53125 2.5323,0.72854 -1.0537,-2.7773 -1.8732,-8.4619 -1.8428,-11.642 0,0 0,3.6617 -1.5935,4.49"
           fill="#2c2c2c"
           id="path178"
           style="stroke-width:0.830522" />
        <path
           d="m 103.45,29.492 c 0,0 0,0.61361 0.5463,1.3074 0.23424,0.29702 1.2423,1.0776 1.2423,1.0776 0.0825,0.01726 0.16693,0.03464 0.25589,0.04761 -0.15824,-0.75876 -0.29493,-1.4374 -0.36861,-1.8189 -0.0411,-0.20388 -0.065,-0.32088 -0.065,-0.32088 -0.57458,-0.08885 -1.1101,-0.18639 -1.6109,-0.29273"
           fill="#1e1e1e"
           id="path180"
           style="stroke-width:0.830522" />
        <path
           d="m 112.91,21.015 c -4.774,-0.16264 -7.5469,-1.342 -8.3166,-1.7193 -0.0239,0.13229 -0.0477,0.26226 -0.0716,0.39235 0.85213,0.51827 2.0987,0.89117 3.6034,1.1838 0,0 -1.5848,0.34254 -3.6791,-0.75007 -0.0999,0.59624 -0.19091,1.1707 -0.25809,1.704 -0.0346,0.26446 -0.0628,0.52036 -0.0846,0.76525 0,0 2.2873,2.3307 9.9123,2.3307 v -3.8873 c -0.37938,0 -0.74799,-0.0065 -1.1057,-0.01946"
           fill="#4d4d4d"
           id="path182"
           style="stroke-width:0.830522" />
        <path
           d="m 104.49,19.902 c -0.013,0.07379 -0.0259,0.14747 -0.0389,0.21906 2.0943,1.0926 3.6791,0.75007 3.6791,0.75007 -1.5047,-0.29262 -2.7512,-0.66551 -3.6034,-1.1838 -0.013,0.07159 -0.0239,0.14318 -0.0368,0.21465"
           fill="#2c2c2c"
           id="path184"
           style="stroke-width:0.830522" />
        <path
           d="m 104.69,18.777 c -0.0324,0.17341 -0.065,0.34683 -0.0953,0.51816 0.76965,0.3773 3.5425,1.5567 8.3166,1.7193 -5.0732,-0.51827 -6.955,-1.548 -8.2212,-2.2375"
           fill="#1e1e1e"
           id="path186"
           style="stroke-width:0.830522" />
        <path
           d="m 105.74,12.542 c -0.15616,1.7301 -0.63528,4.0499 -1.0429,6.2353 1.2663,0.68949 3.1481,1.7192 8.2212,2.2375 0.35772,0.01297 0.72633,0.01946 1.1057,0.01946 v -8.5594 c -3.432,0 -3.677,-2.0185 -3.677,-2.0185 0.71984,0.51388 1.4786,0.96484 3.677,0.96484 v -0.26887 c -0.45526,0.02386 -1.1404,0.0065 -1.9274,-0.22554 -0.89974,-0.26226 -1.548,-0.68926 -1.9296,-0.98639 -0.63956,-0.023872 -1.4375,0.0044 -2.9898,1.1209 -0.68288,0.49221 -1.1403,1.0472 -1.4374,1.4808 z m 2.1138,-1.2791 c -0.0628,0.0563 -1.0602,0.94955 -1.2986,1.8818 -0.245,0.96473 -0.91931,4.284 -0.91931,4.284 l 0.40324,-4.529 c 0,0 0.33826,-0.85201 1.8146,-1.6368"
           fill="#2c2c2c"
           id="path188"
           style="stroke-width:0.830522" />
        <path
           d="m 105.07,29.784 c 0,0 0.0239,0.117 0.065,0.32088 0,0 0.53125,1.3138 0.92789,2.5669 0.4943,0.22554 0.9974,0.24292 2.4001,0.26887 1.8167,0.03255 2.3327,0.39235 3.0504,0.41413 0.71751,0.02155 1.5023,-0.83047 2.5105,-0.83047 v -2.1745 c -3.7333,0 -6.6537,-0.21037 -8.954,-0.56588"
           fill="#1e1e1e"
           id="path190"
           style="stroke-width:0.830522" />
        <path
           d="m 105.13,30.105 c 0.0737,0.38158 0.21037,1.0602 0.36861,1.8189 0.0325,0.16056 0.0672,0.32517 0.10194,0.49001 0.16693,0.10843 0.30999,0.19299 0.45734,0.25798 -0.39664,-1.2532 -0.92789,-2.5669 -0.92789,-2.5669"
           fill="#878787"
           id="path192"
           style="stroke-width:0.830522" />
        <path
           d="m 106.03,12.9 -0.40324,4.529 c 0,0 0.67431,-3.3193 0.91931,-4.284 0.2384,-0.93229 1.2358,-1.8255 1.2986,-1.8818 -1.4764,0.78482 -1.8146,1.6368 -1.8146,1.6368"
           fill="#4d4d4d"
           id="path194"
           style="stroke-width:0.830522" />
        <path
           d="m 106.06,32.672 c -0.14735,-0.06499 -0.29041,-0.14955 -0.45734,-0.25798 0.24918,1.1946 0.52024,2.4629 0.6742,3.0353 0.0866,0.32528 0.40753,0.8651 0.8607,1.496 0.3079,0.42919 0.67639,0.89974 1.0732,1.3745 0.74799,0.89117 1.5979,1.7974 2.3458,2.4607 -0.12349,-0.12349 -1.2769,-1.2834 -2.2764,-2.851 -1.058,-1.6563 -1.5935,-2.5322 -1.8624,-3.9241 -0.0737,-0.38587 -0.20597,-0.8541 -0.35772,-1.3333"
           fill="#fbfbfb"
           id="path196"
           style="stroke-width:0.830522" />
        <path
           d="m 112.5,41.921 c 0.60481,0.14306 1.2336,0.16693 1.5241,0.16693 v -3.1415 c -0.81089,0 -1.7756,-0.58755 -1.8363,-0.62438 0.0455,0.0044 0.60492,0.07159 1.8363,0.07159 v -0.88236 c -1.6304,0 -3.1848,-0.22334 -3.1848,-0.22334 0.83684,-0.01517 2.168,-0.35992 2.3783,-0.34254 0.20805,0.01726 0.80649,0.41622 0.80649,0.41622 v -1.7474 c -0.68068,0 -0.98859,-0.27107 -1.1274,-0.52256 -0.85421,-0.1821 -0.94746,-0.75019 -0.94746,-0.75019 0.14746,0.20168 0.33605,0.34903 0.83475,0.32957 0,0 0.44876,0.62879 1.2401,0.62879 v -2.7752 c -1.0082,0 -1.793,0.85201 -2.5105,0.83047 -0.71776,-0.02178 -1.2337,-0.38158 -3.0504,-0.41413 -1.4027,-0.02595 -1.9058,-0.04333 -2.4001,-0.26887 0.15175,0.47924 0.28404,0.94747 0.35772,1.3333 0.26887,1.3919 0.8044,2.2678 1.8624,3.9241 0.99948,1.5676 2.1529,2.7275 2.2764,2.851 0.007,0.0044 0.0109,0.0088 0.0109,0.0088 0.48132,0.42699 0.91711,0.75227 1.2552,0.90831 0.20597,0.09545 0.438,0.16913 0.67432,0.22334 z m -0.63307,-7.5643 c -0.69377,0.17341 -1.5134,1.3268 -1.6282,2.2375 -0.0131,0.16913 -0.0131,0.27536 -0.0131,0.27536 -0.004,-0.08897 0,-0.18002 0.0131,-0.27536 0.0217,-0.33826 0.0802,-0.92569 0.2406,-1.3853 0.20377,-0.57886 1.11,-0.79792 1.3876,-0.85213"
           fill="#878787"
           id="path198"
           style="stroke-width:0.830522" />
        <path
           d="m 107.14,36.945 c -0.0997,1.1273 -0.0933,2.6688 -0.0152,4.3968 0.0846,0.56148 0.19079,1.097 0.3035,1.5869 0.3751,1.6305 0.82387,2.7774 0.82387,2.7774 0.84332,-1.173 2.0488,-2.2028 2.9616,-2.8922 0.34035,-0.25589 0.63956,-0.46614 0.86279,-0.6157 -1.6737,-0.52685 -2.6189,-1.8364 -3.8634,-3.8787 -0.39676,-0.47472 -0.76525,-0.94526 -1.0732,-1.3745"
           fill="#fbfbfb"
           id="path200"
           style="stroke-width:0.830522" />
        <path
           d="m 107.42,42.929 c -0.11272,-0.48989 -0.21894,-1.0254 -0.30351,-1.5869 0.22983,5.1708 1.0883,12 1.6326,14.329 0.34903,0.07597 0.70247,0.14525 1.058,0.20593 -1.1122,-3.0938 -2.3502,-12.648 -2.387,-12.948"
           fill="#878787"
           id="path202"
           style="stroke-width:0.830522" />
        <path
           d="m 108.25,45.706 c 0,0 -0.44877,-1.1469 -0.82386,-2.7774 0.0368,0.29922 1.2748,9.8538 2.387,12.948 0.36849,0.0629 0.7393,0.11933 1.1166,0.16485 0,0 0.48989,-4.9084 0.64604,-6.7621 0.15824,-1.8537 1.0406,-4.2321 1.0406,-4.2321 l -0.81077,-1.524 -0.22983,-0.27315 c 0,0 -2.0402,1.2531 -3.3258,2.4564"
           fill="#fbfbfb"
           id="path204"
           style="stroke-width:0.830522" />
        <path
           d="m 110.55,40.78 c -0.74787,-0.66331 -1.5978,-1.5695 -2.3458,-2.4607 1.2445,2.0423 2.1898,3.3519 3.8634,3.8787 0.24721,-0.16704 0.40116,-0.26458 0.42282,-0.27756 -0.23631,-0.05421 -0.46834,-0.12789 -0.67431,-0.22334 -0.33814,-0.15604 -0.77394,-0.48132 -1.2553,-0.90831 0,0 -0.004,-0.0044 -0.0109,-0.0088"
           fill="#2c2c2c"
           id="path206"
           style="stroke-width:0.830522" />
        <path
           d="m 110.47,35.209 c -0.16044,0.45966 -0.21894,1.0471 -0.2406,1.3853 0.1148,-0.91063 0.93438,-2.0641 1.6282,-2.2375 -0.27755,0.05421 -1.1838,0.27327 -1.3876,0.85213"
           fill="#2c2c2c"
           id="path208"
           style="stroke-width:0.830522" />
        <g
           fill="#1e1e1e"
           id="g216"
           style="stroke-width:0.830522">
          <path
             d="m 108.25,45.706 c 1.2856,-1.2034 3.3258,-2.4564 3.3258,-2.4564 l -0.3642,-0.4358 c -0.91283,0.68937 -2.1183,1.7192 -2.9616,2.8922"
             id="path210"
             style="stroke-width:0.830531" />
          <path
             d="m 110.34,10.456 c 0,0 0.24501,2.0185 3.677,2.0185 v -1.0537 c -2.1984,0 -2.9572,-0.45097 -3.677,-0.96484"
             id="path212"
             style="stroke-width:0.830531" />
          <path
             d="m 110.93,56.041 c 0.19067,0.02388 0.38146,0.04542 0.57445,0.06498 0,0 0.24501,-5.2576 0.54422,-7.3496 0.29922,-2.0943 0.98639,-3.768 0.98639,-3.768 l -1.2292,-1.4656 0.81077,1.524 c 0,0 -0.88236,2.3785 -1.0406,4.2321 -0.15615,1.8537 -0.64604,6.7621 -0.64604,6.7621"
             id="path214"
             style="stroke-width:0.830531" />
        </g>
        <g
           fill="#2c2c2c"
           id="g224"
           style="stroke-width:0.830522">
          <path
             d="m 111.21,42.814 0.3642,0.4358 0.22983,0.27315 1.2292,1.4656 h 0.98651 v -2.528 c -0.75448,0 -1.392,-0.08885 -1.947,-0.26226 -0.22322,0.14955 -0.52244,0.3598 -0.86278,0.6157"
             id="path218"
             style="stroke-width:0.830531" />
          <path
             d="m 111.5,56.106 c 0.14098,0.0152 0.28184,0.02815 0.42282,0.03696 l 0.002,-0.03696 c -0.12128,-2.1768 0.34046,-6.9616 0.34046,-6.9616 0,0 0.0477,5.8733 0.87367,7.0721 0.29054,0.01085 0.58327,0.01516 0.87808,0.01516 v -11.243 h -0.9865 c 0,0 -0.68717,1.6737 -0.98639,3.768 -0.29922,2.0921 -0.54422,7.3496 -0.54422,7.3496"
             id="path220"
             style="stroke-width:0.830531" />
          <path
             d="m 110.83,37.288 c 0,0 1.5545,0.22334 3.1848,0.22334 v -0.14967 c 0,0 -0.59844,-0.39896 -0.80649,-0.41622 -0.21037,-0.01738 -1.5415,0.32737 -2.3783,0.34254"
             id="path222"
             style="stroke-width:0.830531" />
        </g>
        <g
           fill="#1e1e1e"
           id="g232"
           style="stroke-width:0.830522">
          <path
             d="m 112.27,49.145 c 0,0 -0.46174,4.7848 -0.34045,6.9616 l -0.002,0.03696 c 0.40104,0.03453 0.80649,0.0606 1.2162,0.07358 -0.82594,-1.1989 -0.87367,-7.0721 -0.87367,-7.0721"
             id="path226"
             style="stroke-width:0.830531" />
          <path
             d="m 111.94,34.341 c 0,0 0.0932,0.56809 0.94746,0.75019 -0.1192,-0.21906 -0.11271,-0.42062 -0.11271,-0.42062 -0.4987,0.01946 -0.68729,-0.12789 -0.83475,-0.32957"
             id="path228"
             style="stroke-width:0.830531" />
          <path
             d="m 112.5,41.921 c -0.0217,0.01297 -0.17561,0.11051 -0.42282,0.27756 0.555,0.17341 1.1925,0.26226 1.947,0.26226 v -0.37289 c -0.29053,0 -0.91932,-0.02386 -1.5241,-0.16693"
             id="path230"
             style="stroke-width:0.830531" />
        </g>
        <path
           d="m 114.02,38.394 c -1.2314,0 -1.7908,-0.06719 -1.8363,-0.07159 0.0607,0.03684 1.0254,0.62438 1.8363,0.62438 v -0.5528"
           fill="#878787"
           id="path234"
           style="stroke-width:0.830522" />
        <path
           d="m 112.89,35.092 c 0.13878,0.25149 0.44669,0.52256 1.1274,0.52256 v -0.31439 c -0.79132,0 -1.2401,-0.62879 -1.2401,-0.62879 0,0 -0.007,0.20156 0.11271,0.42062"
           fill="#1e1e1e"
           id="path236"
           style="stroke-width:0.830522" />
        <path
           d="m 111.05,37.405 c 0.4,0.18685 0.28775,0.51862 1.1027,0.51723 0.81494,-0.0014 1.6597,-0.12604 1.6597,-0.12604 l 1.9737,-0.22299 1.2146,-0.23956 -0.0483,-0.01842 c 0,0 -1.4287,0.19566 -2.931,0.19566 -1.5024,0 -3.1545,-0.21801 -3.1545,-0.21801 l 0.18315,0.11213"
           fill="#fbfbfb"
           id="path238"
           style="stroke-width:0.830522" />
        <path
           d="m 115.39,37.619 c -0.34034,-2.31e-4 -0.79119,-0.0027 -1.2459,-0.01065 -0.91932,-0.01657 -1.628,-0.04564 -3.1612,-0.30061 -0.003,-3.61e-4 -0.006,-6.89e-4 -0.008,-0.0011 h -0.0834 l 0.16183,0.09904 c 0.39988,0.18685 0.28764,0.51862 1.1026,0.51723 0.81494,-0.0014 1.6597,-0.12604 1.6597,-0.12604 l 1.5749,-0.17793"
           fill="#1e1e1e"
           id="path240"
           style="stroke-width:0.830522" />
        <path
           d="m 114.76,33.811 c 0.19843,-0.02491 0.30258,0.79872 0.0262,0.79826 -0.27651,-3.61e-4 -0.30327,-0.76339 -0.0262,-0.79826"
           fill="#fbfbfb"
           id="path242"
           style="stroke-width:0.830522" />
        <path
           d="m 115.61,37.779 c 0.18801,-0.20689 0.68856,-0.07842 0.48237,0.05618 -0.2062,0.13449 -0.63516,0.11202 -0.48237,-0.05618"
           fill="#fbfbfb"
           id="path244"
           style="stroke-width:0.830522" />
        <g
           fill="#1e1e1e"
           id="g254"
           style="stroke-width:0.830522">
          <path
             d="m 114.56,36.174 c 0.25334,-0.26493 0.75134,-0.17944 1.2784,0.0673 0.52708,0.24674 1.5588,0.62798 1.5139,0.74011 -0.0219,0.05479 -0.28022,0.01529 -0.3203,0.01251 -0.23759,-0.0168 -0.47448,-0.04645 -0.71045,-0.07854 -0.27524,-0.0373 -0.5506,-0.0746 -0.82398,-0.12349 -0.22172,-0.03962 -0.46719,-0.06893 -0.67594,-0.15615 -0.14098,-0.05896 -0.42317,-0.29273 -0.26168,-0.46174"
             id="path246"
             style="stroke-width:0.830531" />
          <path
             d="m 113.47,36.174 c -0.25334,-0.26493 -0.75135,-0.17944 -1.2784,0.0673 -0.52708,0.24674 -1.5586,0.62798 -1.5138,0.74011 0.0219,0.05479 0.28022,0.01529 0.32019,0.01251 0.23771,-0.0168 0.4746,-0.04645 0.71057,-0.07854 0.27524,-0.0373 0.55048,-0.0746 0.82398,-0.12349 0.2216,-0.03962 0.46719,-0.06893 0.67593,-0.15615 0.14086,-0.05896 0.42317,-0.29273 0.26157,-0.46174"
             id="path248"
             style="stroke-width:0.830531" />
          <path
             d="m 112.5,37.797 c 0.78796,0.06754 3.7608,-0.27478 4.7098,-0.50866 0,0 -0.82514,0.3532 -2.0576,0.41842 -1.2323,0.06533 -2.8111,0.44448 -2.8111,0.44448 l 0.15893,-0.35424"
             id="path250"
             style="stroke-width:0.830531" />
          <path
             d="m 110.83,37.288 c 0,0 0.30084,0.27616 0.69783,0.57133 l 0.16044,-0.12001 -0.72088,-0.4329 L 110.83,37.288"
             id="path252"
             style="stroke-width:0.830531" />
        </g>
        <path
           d="m 113.19,38.811 c 0.72887,-0.06742 2.3548,-0.25798 2.3941,-0.12337 0.0393,0.13449 -0.96994,0.56067 -1.5307,0.56067 -0.56067,0 -0.86336,-0.4373 -0.86336,-0.4373"
           fill="#2c2c2c"
           id="path256"
           style="stroke-width:0.830522" />
        <path
           d="m 116.74,37.258 c 0.0924,-0.04935 0.45097,-0.03024 0.51828,0.02502 0.0673,0.05537 0.40058,0.45375 0.19785,0.47958 C 117.37193,37.77337 116.74,37.258 116.74,37.258"
           fill="#1e1e1e"
           id="path258"
           style="stroke-width:0.830522" />
        <path
           d="m 111.3,37.258 c -0.0924,-0.04935 -0.45108,-0.03024 -0.51827,0.02502 -0.0673,0.05537 -0.40069,0.45375 -0.19797,0.47958 0.0843,0.01077 0.71624,-0.5046 0.71624,-0.5046"
           fill="#1e1e1e"
           id="path260"
           style="stroke-width:0.830522" />
        <path
           d="m 125.14,48.41 -2.0562,-4.8164 c 0,0 0.9419,3.1908 1.3009,3.7345 0.35877,0.54353 0.75529,1.082 0.75529,1.082"
           fill="#878787"
           id="path262"
           style="stroke-width:0.830522" />
        <path
           d="m 101.2,42.088 c 0,0 1.5377,-2.5348 1.7444,-2.7826 0.20678,-0.24778 -0.33153,0.77614 -0.64546,1.4752 -0.31393,0.69922 -1.099,1.3074 -1.099,1.3074"
           fill="#878787"
           id="path264"
           style="stroke-width:0.830522" />
      </g>
      <path
         d="m 112.5,37.797 -3.3092,2.7712 c 0,0 0.0879,0.13519 0.0716,0.29146 l 3.2376,-2.8745 0.10044,-0.18222 -0.10044,-0.0059"
         fill="#1f1f1f"
         id="path268"
         style="stroke-width:0.830522" />
      <path
         d="m 112.51,37.938 c -0.0941,0.26006 -2.6772,2.5031 -3.3217,3.131 v 0.0028 c -0.16311,0.15766 -0.26273,0.25439 -0.26273,0.25439 -0.011,0 -0.49511,-0.0027 -0.82155,-0.4563 -0.33188,-0.45642 -0.12719,-0.68601 -0.12719,-0.68601 l 0.177,-0.12731 h 0.003 l 3.6755,-2.7496 c 0.37069,-0.12441 0.79131,0.31022 0.6779,0.6311"
         fill="#2d2d2d"
         id="path270"
         style="stroke-width:0.830522" />
      <path
         d="m 108.55,39.952 3.2466,-2.4411 -2.9334,2.5915 z"
         fill="#4e4e4e"
         id="path272"
         style="stroke-width:0.830522" />
      <path
         d="m 109.19,41.069 v 0.0028 c -0.16311,0.15766 -0.26273,0.25439 -0.26273,0.25439 -0.011,0 -0.49511,-0.0027 -0.82155,-0.4563 -0.30964,-0.42606 -0.15198,-0.65288 -0.12997,-0.68312 l 0.003,-0.0029 0.17701,-0.12731 h 0.003 c 0.35691,-0.07727 1.0036,0.63215 1.0317,1.0125"
         fill="#fbfdfe"
         id="path274"
         style="stroke-width:0.830522" />
      <path
         d="m 108.92,41.326 c -0.011,0 -0.49511,-0.0027 -0.82155,-0.4563 -0.30964,-0.42606 -0.15198,-0.65288 -0.12997,-0.68312 l 0.003,-0.0029 c 0.11619,-0.08294 0.49233,0.11063 0.6888,0.38992 0.19357,0.28219 0.34845,0.61697 0.25994,0.75239"
         fill="#ef2e2e"
         id="path276"
         style="stroke-width:0.830522" />
      <g
         fill="#fbfafa"
         stroke-width="0.830531"
         id="g282">
        <path
           d="m 106.07,38.86 c -0.55696,-0.45398 -1.0123,-1.0714 -1.1242,-1.7814 -0.12858,-0.80904 0.19427,-1.6117 0.36919,-2.4117 0.17492,-0.80139 0.15048,-1.7636 -0.48364,-2.2831 -0.7576,-0.61998 -2.0464,-0.3254 -2.6831,-1.0689 -0.44379,-0.51966 -0.34347,-1.3107 -0.0952,-1.9474 0.24953,-0.63805 0.62381,-1.2477 0.66111,-1.9307 0.0463,-0.84634 -0.45665,-1.6528 -1.1306,-2.1673 -0.67524,-0.51457 -1.5023,-0.78216 -2.3242,-0.99566 -0.62902,-0.16334 -1.2876,-0.30999 -1.8008,-0.70999 -0.13692,-0.10657 -0.25462,-0.23215 -0.35714,-0.36919 0.15546,0.37672 0.39722,0.7159 0.68763,1.0006 0.31347,0.30744 0.67733,0.56357 1.0726,0.75494 0.44518,0.21558 0.92627,0.3481 1.3756,0.55476 0.44924,0.20666 0.88167,0.50634 1.1044,0.94804 0.27038,0.53623 0.1835,1.191 -0.0485,1.7448 0.0356,-0.43742 -0.21489,-0.85885 -0.55153,-1.1403 -0.7408,-0.61952 -1.9171,-0.94133 -2.8468,-1.1157 -0.41738,-0.07831 -0.85074,-0.12673 -1.2261,-0.3254 -0.37533,-0.19867 -0.68511,-0.59716 -0.62755,-1.0179 -0.20092,0.8117 -0.03264,1.6839 0.33462,2.4352 0.23976,0.49059 0.56087,0.93635 0.91708,1.3486 0.34185,0.3956 0.64477,0.58558 1.0887,0.83464 0.78425,0.44008 1.7538,0.74683 2.1923,1.6013 0.19936,0.38981 0.25462,0.85155 0.51966,1.2001 0.27397,0.36142 0.70872,0.52488 1.1396,0.69713 0.29447,0.08873 0.56716,0.22126 0.80382,0.41298 -0.23411,-0.18141 -0.51827,-0.29841 -0.80382,-0.41298 -0.54156,-0.16588 -1.15,-0.18905 -1.7223,-0.18256 -0.9609,0.01031 -2.0027,0.03857 -2.7796,-0.52743 -0.71138,-0.51839 -0.99821,-1.3776 -1.33,-2.2175 -0.27522,-0.46302 -0.69328,-0.83985 -1.2026,-1.0032 -0.67916,-0.21871 -1.5049,0 -1.9102,0.5865 -0.27395,0.39618 -0.33698,0.90032 -0.32924,1.3814 0.0077,0.49916 0.08747,1.0071 0.32802,1.4445 0.34215,0.62253 0.97882,1.0405 1.6528,1.2657 1.3094,0.4373 2.9533,0.48618 4.3231,0.44379 0.36143,-0.0117 0.72424,-0.03858 1.0857,-0.04773 0.74729,-0.01934 1.6284,-0.02827 2.2895,0.37058 0.94793,0.56982 0.56079,1.8959 0.57886,2.8092 0.0116,0.62635 0.10809,1.2721 0.47843,1.7917 0.70362,0.98523 2.0298,1.5217 3.2067,1.5936 0.4168,0.02583 0.88618,-0.07449 1.0097,-0.50414 -0.64304,-0.30234 -1.2914,-0.61106 -1.8419,-1.0599"
           id="path278"
           style="stroke-width:0.830531" />
        <path
           d="m 101.23,34.598 c 0.0467,0.0065 0.0932,0.01402 0.13994,0.02259 0.25056,0.04622 0.50472,0.13125 0.68647,0.30988 0.26644,0.26168 0.30999,0.64257 0.33386,0.99612 0.0273,0.40626 0.0195,0.83753 0.22809,1.1873 -0.057,-0.09545 -0.18859,-0.16982 -0.25485,-0.27095 -0.0778,-0.11874 -0.13322,-0.25056 -0.18315,-0.38286 -0.1,-0.26516 -0.16797,-0.54596 -0.30848,-0.79421 -0.35031,-0.61894 -1.1386,-0.65995 -1.7705,-0.53982 -0.53831,0.1024 -1.0681,0.28057 -1.5987,0.41147 -0.56924,0.1404 -1.1599,0.21674 -1.7445,0.25647 -0.27778,0.01877 -0.57598,0.02247 -0.81042,-0.12766 -0.19427,-0.12441 -0.31884,-0.35077 -0.31997,-0.58141 -0.0026,-0.5075 0.30223,-0.5572 0.6908,-0.48595 0.67532,0.12407 1.3504,0.10785 2.0336,0.08595 0.49545,-0.01564 0.99068,-0.04031 1.4852,-0.07391 0.46174,-0.03151 0.93159,-0.08816 1.3926,-0.01297"
           id="path280"
           style="stroke-width:0.830531" />
      </g>
    </g>
    <rect
       x="0.0054588001"
       y="0.066145003"
       width="137.58"
       height="63.5"
       fill="#333333"
       fill-rule="evenodd"
       opacity="0.56765"
       id="rect286"
       style="stroke-width:0.999978" />
  </g>
</svg>
