<?xml version="1.0" encoding="UTF-8" standalone="no"?>
<svg
   width="520"
   height="240"
   version="1.1"
   viewBox="0 0 137.58 63.5"
   id="svg360"
   sodipodi:docname="travel.svg"
   inkscape:version="1.1 (c68e22c387, 2021-05-23)"
   xmlns:inkscape="http://www.inkscape.org/namespaces/inkscape"
   xmlns:sodipodi="http://sodipodi.sourceforge.net/DTD/sodipodi-0.dtd"
   xmlns="http://www.w3.org/2000/svg"
   xmlns:svg="http://www.w3.org/2000/svg">
  <sodipodi:namedview
     id="namedview362"
     pagecolor="#ffffff"
     bordercolor="#666666"
     borderopacity="1.0"
     inkscape:pageshadow="2"
     inkscape:pageopacity="0.0"
     inkscape:pagecheckerboard="0"
     showgrid="false"
     inkscape:zoom="2.2583333"
     inkscape:cx="247.97048"
     inkscape:cy="120"
     inkscape:window-width="3840"
     inkscape:window-height="2087"
     inkscape:window-x="1920"
     inkscape:window-y="0"
     inkscape:window-maximized="1"
     inkscape:current-layer="svg360" />
  <defs
     id="defs326">
    <linearGradient
       id="linearGradient290021"
       x1="-189.22"
       x2="-189.22"
       y1="-77.017"
       y2="-12.607"
       gradientUnits="userSpaceOnUse">
      <stop
         stop-color="#3ab0c4"
         offset="0"
         id="stop321" />
      <stop
         stop-color="#dfae37"
         offset="1"
         id="stop323" />
    </linearGradient>
    <clipPath
       clipPathUnits="userSpaceOnUse"
       id="clipPath1133">
      <rect
         style="fill:#2e2e2e;stroke:none;stroke-width:1.05833;stroke-opacity:0;paint-order:stroke fill markers"
         id="rect1135"
         width="137.58333"
         height="63.5"
         x="-9.7655775e-06"
         y="6.7901613e-07" />
    </clipPath>
  </defs>
  <g
     id="g194"
     clip-path="url(#clipPath1133)"
     inkscape:export-filename="/home/joshua/Code/Personal/Koto/data/genres/travel.png"
     inkscape:export-xdpi="96.0084"
     inkscape:export-ydpi="96.0084">
    <g
       transform="translate(0 -11.25)"
       id="g354">
      <g
         transform="translate(258.01 87.812)"
         id="g350">
        <rect
           x="-258.01"
           y="-76.562"
           width="137.58"
           height="63.5"
           fill="url(#linearGradient290021)"
           stroke-opacity=".82206"
           stroke-width="1.0583"
           style="paint-order:stroke fill markers"
           id="rect328" />
        <path
           d="m-258.01-15.076h137.66v2.0146h-137.66v-2.0146"
           fill="#082d0f"
           fill-rule="evenodd"
           id="path330" />
        <g
           transform="translate(11.406)"
           fill="#082d0f"
           fill-rule="evenodd"
           id="g348">
          <path
             d="m-240.76-24.496v10.626l0.59537 0.80873h-6.427l0.48838-0.80873h0.0152v-6.4273l-0.32048-0.8853h1.1449-0.80921c-0.10659-1.2976-1.2059-2.3357-2.5186-2.3357-1.3436 0-2.4275 1.0381-2.5341 2.3357h-0.82445 1.1602l-0.32067 0.8853v6.4273h0.0153l0.58 0.80873h-6.412l0.47339-0.80873v-11.816l-1.3892-1.0837h-0.0458v-0.10685h1.435v-1.7555h15.694v1.7555h1.4504v0.10686h-0.0764l-1.374 1.0837v1.1907"
             id="path332" />
          <path
             d="m-234.47-13.504h-0.51914v-4.0304c0-1.2365-1.8167-2.2441-1.8167-2.2441s-1.8167 1.0076-1.8167 2.2441v4.0304h-0.45787v-6.7481h4.6104v4.2291zm5.7552 0h-0.47319v-4.0304c0-1.2365-1.8167-2.2441-1.8167-2.2441s-1.8167 1.0076-1.8167 2.2441v4.0304h-0.51914v-6.7481h4.6258v4.2291zm5.7556 0h-0.41227v-4.0304c0-1.2365-1.8167-2.2441-1.8167-2.2441s-1.8169 1.0076-1.8169 2.2441v4.0304h-0.59519v-6.7481h4.6411v4.2291zm-15.709-13.266h0.59571v-0.59536h-0.59571zm3.1296 0h0.59571v-0.59536h-0.59571zm-1.8014-3.9385c0.15297 0 0.27497 0.09137 0.27497 0.19788v2.2749h-0.56491v-2.2749c0-0.10651 0.122-0.19788 0.28994-0.19788zm1.1451 0c0.15263 0 0.28994 0.09137 0.28994 0.19788v2.2749h-0.58005v-2.2749c0-0.10651 0.12235-0.19788 0.29011-0.19788zm9.1292 3.9385h0.61068v-0.59536h-0.61068zm3.1296 0h0.59536v-0.59536h-0.59536zm-1.8014-3.9385c0.15263 0 0.29011 0.09137 0.29011 0.19788v2.2749h-0.58005v-2.2749c0-0.10651 0.122-0.19788 0.28994-0.19788zm1.145 0c0.15246 0 0.29011 0.09137 0.29011 0.19788v2.2749h-0.58004v-2.2749c0-0.10651 0.12199-0.19788 0.28993-0.19788zm1.5877 2.8242h-4.4272v-3.3586h4.4272v3.1754zm-7.8467 0.8397c0.45788 0.03063 0.86999 0.21371 1.206 0.48799-0.33605-0.27428-0.74816-0.45736-1.206-0.48799zm-2.3357 2.0454c0.0609-1.0992 0.91593-1.9693 1.9996-2.0454-1.0837 0.07605-1.9387 0.96153-1.9996 2.0454zm2.8548-5.6179h1.8012v2.5802h-0.97701l-0.68707-1.0995-0.13714-0.19805zm-3.1756 0h2.0457v1.2826l-0.12217 0.19805-0.70222 1.0995h-1.2214v-0.03063zm-6.8086 8.4118v1.9537h0.10669v7.1905h18.365v-7.1905h0.19857v-2.1825h-0.25949v-16.304h0.36634v-0.45822h-0.73267v-0.6869h-0.25966v-0.21354h-0.0762l-0.28994-0.51896-0.30542-0.54976-0.28994 0.54976-0.29028 0.51896h-0.0764v0.21354h-4.3355v0.6869h-0.74798v0.45822h0.4121v7.4348h-1.8012l-0.29029-2.1834-0.0611-0.58005v-3.1141h0.48851v-0.382h-0.48851v-0.41228h-0.41211v0.41228h-0.4885v0.382h0.4885v3.0379l-0.0917 0.65628-0.28994 2.1834h-2.0304v-7.4348h0.3665v-0.45822h-0.73301v-0.6869h-4.2441v-0.21354h-0.0762l-0.28994-0.51896-0.28994-0.54976-0.30542 0.54976-0.27497 0.51896h-0.0915v0.21354h-0.3512v0.6869h-0.74781v0.45822h0.41193v16.304h-0.18291v0.22885"
             id="path334" />
          <path
             d="m-166.44-19.977-0.16742-0.32074c-1.1147-0.65662-2.3974-1.0224-3.7862-1.0224-1.2673 0-2.473 0.32022-3.5113 0.88496l-0.15262 0.30577c1.0835-0.61068 2.3355-0.97736 3.6639-0.97736 1.465 0 2.7936 0.41228 3.9536 1.1298zm-6.6715-1.4965v-0.50365l-0.3352 0.64165c0.10652-0.0616 0.21337-0.09206 0.3352-0.138zm3.9237-9.0832h-1.9081l0.0914-0.54976h1.725zm-1.9387 0.29045h1.9996l0.84004 5.4959h-3.7102l0.42777-2.8094zm-2.8395 8.5796h-3.191l0.67176-1.2824h3.1907zm-0.4276 0.8545h-3.206l0.28993-0.5649h3.2058zm-3.4195 0.41228 0.86981 0.59536-1.4499 0.51914zm1.2362 0.45822-0.86964-0.59536h2.5186zm1.2518 0.88564-0.90027-0.62633 1.5263-0.53393zm11.877-2.6106h-3.1903l-0.65662-1.2824h3.1909zm-12.243 2.7173h-2.5805l1.6946-0.61068zm-1.8326 1.2212 0.94656 0.65627h-2.7478zm-1.221-0.85519 0.87033 0.61085-1.4655 0.53445zm1.221 0.48851-0.8089-0.56456h2.3512zm1.0383 1.3134 0.22937-0.44291-0.90113-0.64096 1.4965-0.53445-0.59536 1.1754zm-2.427 1.4807 0.94655 1.1754h-3.0842l0.13731-0.28959zm-0.93159-1.1752 0.64148 0.83953-1.3896 0.61068zm1.0381 0.6561-0.76296-0.96153h2.9157zm1.0995 1.3742-0.80907-1.0381 1.7556-0.76347zm11.51-6.3664h3.1909l-0.29045-0.5649h-3.1902zm3.3891 0.39696-0.86965 0.61068 1.4652 0.53445zm-1.2363 0.47354 0.87033-0.59536h-2.5346zm-1.2518 0.8705 0.88512-0.61119-1.4805-0.53393zm0.36668 0.12183h2.5795l-1.6944-0.61068zm1.8164 1.2212-0.93125 0.65627h2.7326zm1.267-0.87033-0.90079 0.62599 1.4962 0.53445zm-1.267 0.50365 0.82421-0.56456h-2.3508zm-1.2363 0.85502 0.88496-0.62547-1.465-0.51914zm2.6253 1.9391-0.93089 1.1754h3.1143l-0.13731-0.2748zm0.96205-1.1907-0.67142 0.85502 1.4499 0.62565zm-1.0689 0.67159 0.77844-0.96153h-2.9157zm-1.0837 1.3435 0.79359-1.0075-1.7099-0.76347zm-9.877-7.0834v-1.0233l-0.1836 0.382v0.70222zm0.33553-0.09171v-1.2976h-0.13748l-0.0609 0.10686v1.2516zm0.33606-0.09137v-1.2062h-0.19857v1.2671zm0.32074-0.04594v-1.1603h-0.19892v1.1907zm0.32039-0.06091v-1.0994h-0.1984v1.1145zm0.32074-0.0308v-1.0686h-0.19874v1.0839zm0.33571-0.03011v-1.0384h-0.19857v1.0536zm0.32073 0v-1.0384h-0.18377v1.0384zm0.33554 0v-1.0384h-0.1984v1.0384zm0.33588 0.01514v-1.0536h-0.19788v1.0384zm0.32091 0.01497v-1.0686h-0.19874v1.0536zm0.3204 0.04594v-1.1145h-0.19857v1.0839zm0.32073 0.06091v-1.1754h-0.19891v1.1453zm0.33554 0.07623v-1.2516h-0.19822v1.1907zm0.32074 0.06091v-1.3125h-0.18343v1.2671zm0.33571 0.12217v-1.1906l-0.122-0.24417h-0.0764v1.3585zm0.33605 0.10686v-0.67142l-0.1984-0.38165v0.97701zm0.12182-0.42708v0.47319c0.10686 0.04594 0.2144 0.09154 0.30577 0.12217zm-6.045-4.0455 1.4652-0.87033-0.30491 1.9695zm1.1909-1.1298-1.4356 0.86998-0.91558-0.86998zm-3.0995 2.2596h2.6716l-1.0381-0.9925zm8.4574-1.1298-1.3583-0.82473 0.28976 1.8473zm-1.1906-1.1298 1.4506 0.86998 0.90044-0.86998zm1.4657 1.2671-1.0076 0.9925h2.6408zm-0.77897-2.6719-1.2516-0.77844 0.25931 1.6335 0.0153 0.12234zm-1.023-1.0075 1.2525 0.77879 0.77827-0.77879zm1.2525 1.1599-0.96187 0.96204h2.5336zm-5.6183-0.12182 1.1907-0.76296-0.27497 1.6944zm0.99199-1.0381-1.2367 0.80942-0.80873-0.80942zm-2.6562 2.122h2.3665l-0.9469-0.93124zm6.5796-3.1909-1.0686-0.59536 0.22937 1.3742zm-0.58005-0.59536 0.76382 0.44291 0.47285-0.44291zm0.77896 0.70256-0.71787 0.67159h1.8781zm-4.7786-0.06074 0.9925-0.64182h0.13731l-0.18325 1.3742h-0.0607zm0.56456-0.64182-0.74764 0.47354-0.53445-0.47354zm-1.7403 1.3742h1.7102l-0.71753-0.6105zm5.038-5.0377-0.62582-0.51896c0.046 0.38182 0.10686 0.71702 0.16777 1.0075zm0.93159 0.74782-0.76382-0.61068-0.56473 0.59536 0.0151 0.01532zm-0.62599-0.76313 0.62599 0.50382c-0.0305-0.33605-0.0915-0.6869-0.12252-1.0383zm-0.9161-0.73233 0.74781 0.6105 0.56491-0.6105zm0.41228-0.80959-0.62565-0.50365c0.0303 0.3512 0.0609 0.70256 0.12183 1.0226zm0.62582 0.51896-0.45788-0.39645-0.38183 0.39645zm-0.33589-0.54959 0.67142 0.54959c-0.0458-0.36616-0.076-0.74782-0.122-1.1143zm-0.8089-0.64096 0.64096 0.51914 0.50383-0.51914zm0.39645-0.99267-0.65644-0.54942c0.0153 0.39697 0.0611 0.77913 0.0921 1.1448zm0.88582 0.70273-0.73285-0.58005-0.53427 0.58005zm-0.58022-0.71788 0.6105 0.48868c-0.0303-0.35085-0.0762-0.68708-0.0914-1.0383h-0.0151zm-0.67159-0.54959 0.50365 0.41228 0.38148-0.41228zm0.18308-0.9309-0.5649-0.45822c0.0151 0.33605 0.0456 0.67176 0.0611 0.99284zm0.80925 0.64096-0.65679-0.51914-0.47268 0.51914zm-0.50382-0.65627 0.67159 0.53462c-0.0458-0.38217-0.0762-0.73336-0.0912-1.1147h-0.0155zm-0.74834-0.58005 0.58005 0.44222 0.44291-0.44222zm0.39697-0.94673-0.6105-0.50382c0.0151 0.38165 0.0458 0.74799 0.0611 1.0992zm0.79376 0.64113-0.62599-0.50382-0.48799 0.50382zm-0.47285-0.65628 0.54976 0.47319-0.0769-0.99233zm-0.76365-0.59536 0.59537 0.47319 0.42776-0.47319zm0.3056-0.94656-0.53445-0.45805 0.0153 0.19874v0.12182l0.0155 0.64113zm0.77844 0.65628-0.61067-0.51896-0.53445 0.51896zm-0.48867-0.65628 0.62633 0.51896-0.0616-1.0842zm-0.68691-0.59571 0.51914 0.44291 0.45788-0.44291zm0.29029-0.93107-0.48851-0.39679v0.10686l0.0153 0.07606v0.39714l0.0153 0.28994zm0.73267 0.6413-0.56491-0.48851-0.4885 0.48851zm-0.44274-0.6413 0.62582 0.54994-0.0764-1.0992zm-0.71753-0.60999 0.54959 0.48799 0.48851-0.48799zm0.4276-0.94673-0.54942-0.45822 0.0304 0.2292 0.0151 0.7325zm0.77844 0.6561-0.61068-0.53428-0.53427 0.53428zm-0.48851-0.6561 0.51914 0.42742-0.0458-0.91627zm-0.68673-0.59571 0.53428 0.44274 0.44273-0.44274zm0.33588-0.96187-0.5193-0.45788 0.0155 0.30542v0.3968l0.0153 0.22902zm0.74765 0.67176-0.59519-0.54942-0.56474 0.54942zm-0.48851-0.65645 0.53445 0.47336-0.0459-0.94656zm-0.67142-0.61068 0.51914 0.48868 0.4885-0.48868zm0.39697-0.90061-0.51914-0.45788v0.5341l0.0152 0.24434v0.18326zm0.73284 0.61068-0.61067-0.50365-0.50382 0.50365zm-0.48885-0.61068 0.48885 0.42759-0.0461-0.88547zm-0.76313-0.64113 0.62599 0.53428 0.53428-0.53428zm0.48868-0.93124-0.50382-0.42759v0.93124zm0.6869 0.59536-0.56507-0.48868-0.51897 0.54976h1.0992zm-0.45822-0.59536 0.45822 0.39696-0.0458-0.80924zm-0.71736-0.6105 0.59537 0.50348 0.50382-0.50348zm0.41177-0.90096-0.44188-0.38165v0.82439zm0.7029 0.59536-0.58022-0.48834-0.50382 0.50365h1.084zm-0.47336-0.59536 0.45788 0.39696-0.031-0.8397zm-0.22954-1.5417-0.44188-0.42759v0.93124zm0.62599 0.59536-0.50331-0.48868-0.42759 0.48868zm-0.39645-0.59536 0.39645 0.36634-0.0306-0.77879zm-0.67142-0.64113 0.54925 0.51879 0.47285-0.51879zm0.42673-0.94673-0.42673-0.42742v0.96187zm0.59537 0.58005-0.47285-0.45771-0.44274 0.53445h0.91559zm-0.38148-0.58005 0.36633 0.36651-0.0155-0.7633zm-0.61051-0.61068 0.50382 0.50382 0.41211-0.50382zm0.366-0.91576-0.39611-0.41245v0.85519zm0.5649 0.59519-0.44222-0.47336-0.47353 0.50399h0.91575zm-0.35068-0.58022 0.33571 0.36651-0.0153-0.71736zm-0.61033-0.62565 0.50296 0.50382 0.42777-0.48851v-0.01531zm0.33519-0.65645-0.33519-0.29028v0.59571zm0.41228 0.35102-0.29028-0.25931-0.28959 0.25931zm-0.19822-0.33571 0.36616 0.29011-0.0153-0.61102zm-0.48851-0.41245 0.38114 0.30542 0.35136-0.30542zm-1.7405 23.357 0.59537-0.47354c-0.0611 0.3364-0.1072 0.65679-0.16829 0.93159zm-0.94655 0.74782 0.77827-0.61068 0.51931 0.54976v0.01531l-0.0155 0.0456zm0.65627-0.76313-0.6869 0.54994c0.0306-0.36668 0.0915-0.74833 0.12217-1.13zm0.90113-0.73233-0.7485 0.6105-0.56491-0.6105zm-0.39731-0.80959 0.58022-0.45839c-0.0458 0.32143-0.0761 0.65731-0.10685 0.94673zm-0.65644 0.51896 0.48868-0.39645 0.36616 0.39645zm0.35154-0.54959-0.6568 0.54959h-0.0459c0.0306-0.38148 0.0611-0.77827 0.10686-1.1752zm0.82421-0.64096-0.67176 0.51914-0.47319-0.51914zm-0.41262-0.99267 0.61067-0.48782c-0.0305 0.33536-0.0454 0.70204-0.0914 1.0223zm-0.86982 0.70273 0.70205-0.58005 0.56525 0.58005zm0.58022-0.71788-0.67159 0.51879c0.0458-0.33554 0.0764-0.7017 0.0914-1.0684h0.0764zm0.67159-0.54959-0.50382 0.41228-0.38182-0.41228zm-0.19839-0.9309 0.51861-0.41245c-0.0151 0.3056-0.0305 0.6105-0.0607 0.90096zm-0.79411 0.64096 0.62582-0.51914 0.48868 0.51914zm0.50382-0.65627-0.71736 0.5649c0.0306-0.36668 0.0609-0.76365 0.0917-1.145h0.0609zm0.73285-0.58005-0.58005 0.44222-0.44291-0.44222zm-0.41211-0.94673 0.58022-0.44274c-0.0151 0.32057-0.0305 0.67142-0.0613 0.99233zm-0.7941 0.64113 0.65627-0.50382 0.45823 0.50382zm0.50399-0.65628-0.62599 0.50365 0.0915-1.0842zm0.74782-0.59536-0.58005 0.47319-0.45753-0.47319zm-0.28977-0.94656 0.48851-0.42725-0.0151 0.16794v0.12182l-0.0305 0.58005zm-0.77879 0.65628 0.61085-0.51896 0.51896 0.51896zm0.47302-0.65628-0.67159 0.56473 0.0917-1.1604zm0.70291-0.59571-0.54959 0.44291-0.42742-0.44291zm-0.29028-0.93107 0.42759-0.3512v0.06126l-0.0153 0.07606v0.39714l-0.0152 0.244zm-0.74799 0.6413 0.58022-0.48851 0.48833 0.48851zm0.44274-0.6413-0.67211 0.58056 0.0769-1.1906zm0.73284-0.60999-0.58022 0.48799-0.45805-0.48799zm-0.42759-0.94673 0.47319-0.42794v0.19891l-0.0306 0.68673zm-0.79359 0.6561 0.62582-0.53428 0.50382 0.53428zm0.48834-0.6561-0.5804 0.47319 0.0766-1.0078zm0.6869-0.59571-0.53428 0.44274-0.44291-0.44274zm-0.33605-0.96187 0.47353-0.41211-0.0151 0.25965v0.3968l-0.0155 0.18326zm-0.73233 0.67176 0.59536-0.54942 0.56456 0.54942zm0.47302-0.65645-0.57988 0.51896 0.0456-1.0379zm0.6869-0.61068-0.54942 0.48868-0.48868-0.48868zm-1.0992-1.5417-0.0456 0.13731 0.015-0.13731zm0.70239 0.64113 0.45787-0.41211v0.48833l-0.0151 0.24434v0.1528zm-0.73302 0.61068 0.59553-0.50365 0.50365 0.50365zm0.48885-0.61068-0.53445 0.47336 0.0306-0.97718zm0.70204-0.6105-0.58022 0.50365-0.51896-0.53428h1.0992zm-0.42776-0.96187 0.44291-0.39696v0.86998zm-0.76313 0.62582 0.6413-0.51914 0.51931 0.54976h-1.1606zm0.53445-0.62582-0.50382 0.42742 0.0305-0.90078zm0.70221-0.59536-0.58004 0.48833-0.504-0.50348h1.084zm-1.099-1.5725v0.01532zm1.3896 0.06108 0.0453-0.06108h1.0226l-0.51862 0.54976-0.54925-0.47354zm-0.71805 0.59536 0.42742-0.35102v0.76347zm-0.70221 0.61068 0.59519-0.50365 0.48867 0.50365zm0.4885-0.61068-0.50382 0.42759 0.0459-0.90061zm0.64113-0.54959-0.50364 0.44291-0.54994-0.54976h1.023l0.0306 0.01532zm-0.42742-0.99216 0.42742-0.39697v0.85467zm-0.62616 0.59536 0.51914-0.48868 0.4429 0.48868zm0.41245-0.59536-0.44291 0.42725v-0.09154l0.0305-0.79393zm0.64113-0.61068-0.50364 0.48833-0.47354-0.51879h0.97718zm-0.39713-0.97718 0.39713-0.39679v0.85484zm-0.64096 0.64148 0.53445-0.51914 0.44273 0.53445h-0.97718zm0.4121-0.64148-0.39679 0.42759 0.0301-0.87016zm0.62599-0.59536-0.48867 0.48851-0.44274-0.50382h0.93141zm-0.36668-0.93107 0.36668-0.38165v0.77827zm-0.59536 0.62582 0.48851-0.50399 0.44291 0.50399zm0.382-0.61085-0.382 0.41245 0.0153-0.82439zm0.58004-0.59519-0.45822 0.47336-0.47319-0.50382h0.93141zm-0.30507-0.6869 0.30507-0.24434v0.51896zm-0.4276 0.35102 0.30525-0.25931 0.27497 0.25931zm0.22903-0.33571-0.42777 0.33571 0.0305-0.68708zm0.47302-0.41245-0.36651 0.30542-0.366-0.30542zm4.9312 31.205-0.97719 0.93073 1.6336 0.94673zm-0.80942-2.3205-0.71719 0.73233 1.2363 0.77844zm-0.65628-1.8632h-0.0458l-0.58022 0.54976 1.0231 0.59536zm-6.9613 1.2372 1.0076-0.64182-0.61034-0.51828zm-0.8089 2.2896 1.3735-0.90044-0.7781-0.77862zm-0.8705 2.4883 1.5421-0.90061-0.90078-0.87016zm11.786 10.946h0.30525l-2.3054-4.458c-1.2059-1.1603-2.8546-1.8621-4.6559-1.8621-1.649 0-3.1454 0.59536-4.3055 1.5722l-2.4578 4.7479h0.44274v1.0837h-5.8008v-1.0837h0.76313l4.778-9.2357v-1.3893h1.023l1.6945-4.8551v-0.10686h0.0305l0.47354-1.3742h-0.18309v-1.2823h0.53428v-0.244h-0.7941v-1.3895h1.2062c0.90061-7.0528 1.3282-19.174 1.4655-23.052h-0.0306v-0.30542h0.0459l0.0151-0.74816h-0.21354v-1.2516h0.54977v-1.5421h0.64096v-2.1829h0.21371v-1.9998h0.24451v1.9998h0.22868v2.1829h0.62582v1.5421h0.56508v1.2516h-0.22886l0.0305 0.74816h0.0305v0.30542h-0.0152c0.0764 2.183 0.22886 7.0069 0.53445 12.076l0.0152 0.04577-0.0152 0.01514c0.18291 3.0687 0.41177 6.1983 0.68673 8.8852 0.0762 0.7325 0.1676 1.3891 0.22869 2.0301h1.2215v1.3895h-0.79376v0.244h0.51914v1.2823h-0.12217l0.47353 1.3742 1.725 4.962h0.53359v1.2976l0.10737-0.04594 4.8544 9.3733h0.9161v1.0837h-5.801v-1.0837"
             id="path336" />
          <path
             d="m-201.78-21.565c1.2821 0.77913 0.62582 1.0231 0.73267 1.1758h-1.4351c0.10703-0.16794-0.64113-0.36634 0.70239-1.1758zm0.0305-0.56473c0.0306 0.01531 0.0458 0.04543 0.0458 0.09154 0 0.0456-0.0151 0.07623-0.0458 0.10737v0.30491h0.0458v0.06091h-0.1372v-0.06091h0.0458v-0.2748h-0.0458c-0.0459 0-0.0917-0.0456-0.12251-0.09188 0.0308 0.01531 0.0613 0.03063 0.0919 0.03063 0.0764 0 0.13731-0.06091 0.13731-0.12234 0-0.0148 0-0.03011-0.0153-0.04543zm6.1677 3.5111h0.54976c-0.10703 0.04594-0.27514 0.16811-0.30577 0.21406-0.10668 0.0764-0.22868 0.21337-0.22868 0.35102v1.2208h1.1756v-1.2208c0-0.13766-0.13748-0.27462-0.22919-0.35102-0.0458-0.03063-0.21372-0.16811-0.30526-0.21406h0.48868v-0.12182h-1.1451zm-6.9921 2.0764h0.44273c-0.0917 0.04611-0.19839 0.12217-0.22885 0.15245-0.0919 0.07623-0.22903 0.21423-0.22903 0.35137v1.2212h1.1756v-1.2212c0-0.13714-0.122-0.27514-0.2292-0.35137-0.0305-0.03028-0.122-0.10634-0.21354-0.15245h0.44274v-0.12183h-1.1604zm0-2.0764h0.5193c-0.0917 0.04594-0.25965 0.18343-0.30542 0.21406-0.0919 0.0764-0.22903 0.21337-0.22903 0.35102v1.2208h1.1756v-1.2208c0-0.13766-0.13749-0.27462-0.2292-0.35102-0.0458-0.04594-0.19823-0.16811-0.30525-0.21406h0.53445v-0.12182h-1.1604zm7.0227 2.0764h0.42707c-0.0914 0.04611-0.18308 0.12217-0.22885 0.15245-0.0915 0.07623-0.21354 0.21423-0.21354 0.35137v1.2212h1.1756v-1.2212c0-0.13714-0.13748-0.27514-0.22919-0.35137-0.0305-0.03028-0.13749-0.10634-0.22903-0.15245h0.45822v-0.12183h-1.1603zm-6.3967-3.3893h0.27479v0.41262h-0.27479zm0.47319 0h0.27497v0.41262h-0.27497zm5.7552 0h0.27497v0.41262h-0.27497zm0.47337 0h0.27496v0.41262h-0.27496zm0.45805 0h0.28993v0.41262h-0.28993zm-7.633 0h0.2748v0.41262h-0.2748zm7.282 2.4578h0.30525v0.58005h-0.30525zm0 2.0151h0.30525v0.58039h-0.30525zm-7.0072 0h0.30542v0.58039h-0.30542zm0-2.0151h0.30542v0.58005h-0.30542zm4.9159 0.97753h-2.5344v1.618h-0.36634v-4.6407h3.2516v4.6407h-0.35085zm-0.88565 0.76261v0.85536h-0.77861v-0.85536c0-0.16777 0.3665-0.38114 0.39679-0.38114 0.0151 0 0.38182 0.21337 0.38182 0.38114zm0-1.9384v0.87033h0.88565v-0.90079c0-0.51896-1.206-1.2212-1.2675-1.2212-0.0611 0-1.267 0.70222-1.267 1.2212v0.90079h0.87016v-0.87033c0-0.15263 0.3665-0.36668 0.39679-0.36668 0.0151 0 0.38182 0.21406 0.38182 0.36668zm2.2133-2.7173c0.0921-0.16794-0.64114-0.36634 0.70256-1.1758h-0.0609v-0.06091h0.0456v-0.2748h-0.0456c-0.0461 0-0.1072-0.0456-0.12252-0.09188 0.0153 0.01531 0.0611 0.03063 0.0921 0.03063 0.0761 0 0.13697-0.06091 0.13697-0.12234 0-0.0148 0-0.03011-0.015-0.04543 0.0305 0.01531 0.0454 0.04543 0.0454 0.09154 0 0.0456-0.015 0.07623-0.0454 0.10737v0.30491h0.0305v0.06091h-0.0611c1.2821 0.77913 0.6105 1.0231 0.7325 1.1758zm2.2901 2.4732v1.1145l0.77862 0.09154v-1.1145c0-0.21406-0.38148-0.53445-0.39662-0.53445-0.0155-0.01531-0.382 0.21388-0.382 0.44291zm0 1.8929v1.1296l0.77862 0.01531v-1.0534c0-0.19857-0.38148-0.51914-0.39662-0.51914-0.0155 0-0.382 0.2292-0.382 0.42759zm-9.7247-1.8929v1.1145l-0.7781 0.09154v-1.1145c0-0.21406 0.36617-0.53445 0.38148-0.53445 0.0151-0.01531 0.39662 0.21388 0.39662 0.44291zm0 1.8929v1.1296l-0.7781 0.01531v-1.0534c0-0.19857 0.36617-0.51914 0.38148-0.51914 0.0151 0 0.39662 0.2292 0.39662 0.42759zm-5.3428-2.9004v2.6406h1.2365v-2.6406zm17.083 1.7252v1.6335h0.74798v-1.6335zm0.83935-2.0156h-0.0914v1.8933h-0.74798v-1.8933h-0.0915v-0.07623h0.93089zm0-0.10686h-0.93089v-0.07623h0.93089zm0-0.70187h-0.93089v-0.07657h0.93089zm0 0.15245h-0.93089v-0.09154h0.93089zm-0.41193 0.33605h-0.12217v-0.22954h0.12217zm-0.1528 0h-0.122v-0.22954h0.122zm0.32057 0h-0.122v-0.22954h0.122zm0.15279 0.09154h-0.73267v-0.39731h0.73267zm-0.0305-0.70239c-0.0458-0.09137 0.32039-0.19874-0.3512-0.6105-0.65661 0.41176-0.29011 0.53445-0.36633 0.6105h0.71753zm-9.7245 5.71h4.1982v-5.542h-4.1982zm12.335-4.4884v2.6406h-1.2214v-2.6406zm-1.3742-4.5192h1.527v-0.19788h-1.527zm0.67159 0.73302h0.19908v-0.36634h-0.19908zm0.26 0h0.21336v-0.36634h-0.21336zm-0.53445 0h0.19822v-0.36634h-0.19822zm0.96187 0.13714v-0.6413h0.16794v-0.19805h-1.527v0.19805h0.16811v0.6413h-0.16811v0.38199h0.1528v3.0682h1.2214v-3.0682h0.1528v-0.38199zm-1.1603-1.1451c0.0914-0.13697-0.51913-0.30491 0.58005-0.96101 1.0531 0.64062 0.47302 0.83918 0.59536 0.96101h-1.1754zm-17.999 1.5271h-1.2365v3.0682h1.2365zm20.731 9.1288h-23.571v-0.82404h23.571zm-20.579-9.1595h-1.5264v-0.10686h1.5264zm0-0.15263h-1.5264v-0.15228h1.5264zm0-1.1143h-1.5264v-0.15245h1.5264zm0 0.244h-1.5264v-0.16777h1.5264zm-0.67142 0.53445h-0.19874v-0.36634h0.19874zm-0.27497 0h-0.19839v-0.36634h0.19839zm0.5496 0h-0.1984v-0.36634h0.1984zm0.21405 0.13714h-1.1758v-0.6413h1.1758zm-0.0308-1.1451c-0.0764-0.13697 0.51913-0.30491-0.56473-0.96101-1.0534 0.64062-0.47337 0.83918-0.59537 0.96101h1.1601zm2.1677 8.2747v1.008h0.90078v-4.6715l1.5115-0.30577v4.9773h0.0609v-5.8013h0.19874v-0.06143h1.7708v-0.53445h4.7631v0.53445h1.8318v0.06143h0.1528v5.8013h0.0915v-5.0537l1.4655 0.41262v4.6411h0.99233v-1.008h0.74798v1.008h1.3587v-1.6336h1.2214v1.6336h1.5567v0.41176h-23.571v-0.41176h1.6032v-1.6336h1.2365v1.6336h1.3434v-1.008zm0-1.7553v1.6335h-0.76313v-1.6335zm-0.76313-2.0156h0.76313v1.8933h-0.76313zm-0.0766-0.01531h0.93158v-0.06091h-0.93158zm0-0.09154h0.93158v-0.06109h-0.93158zm0-0.70187h0.93158v-0.07657h-0.93158zm0 0.13714h0.93158v-0.07623h-0.93158zm0.39713 0.35137h0.122v-0.22954h-0.122zm0.16777 0h0.12217v-0.22954h-0.12217zm-0.33571 0h0.13749v-0.22954h-0.13749zm-0.13731 0.09154h0.7325v-0.39731h-0.7325zm0.0305-0.70239c0.0458-0.09137-0.32057-0.19874 0.35102-0.6105 0.64113 0.41176 0.29028 0.53445 0.36634 0.6105h-0.71736zm7.6027-5.9386v1.0839h0.13731v0.19874h-0.0458c3.8926 2.458 1.7097 3.2211 2.1676 3.7097-0.74782-0.01549-1.496-0.01549-2.2591 0h-2.2902c0.29011-0.53445-1.969-1.2367 2.0611-3.7097h-0.0459v-0.19874h0.13766v-1.023h-0.0917c-0.16794 0-0.3204-0.10686-0.38166-0.27462 0.0764 0.07657 0.16795 0.10686 0.2748 0.10686 0.22885 0 0.42759-0.18326 0.42759-0.41228 0-0.04594-0.0153-0.10686-0.0305-0.13714 0.0914 0.07623 0.13714 0.18274 0.13714 0.29011 0 0.15245-0.0762 0.28977-0.19823 0.36616"
             id="path338" />
          <path
             d="m-181.85-31.579h0.0761v-5.1753h-0.0761zm0.15228 0h0.0764v-5.1753h-0.0764zm-0.30491 0h0.0912v-5.1753h-0.0912zm-4.7483 0h0.0764v-5.1753h-0.0764zm-0.15245 0h0.0762v-5.1753h-0.0762zm0.30542 0h0.0613v-5.1753h-0.0613zm4.1064-5.1753h-0.29011v0.30508h0.29011zm-0.36651 0h-0.28959v0.30508h0.28959zm-0.36633 0h-0.28994v0.30508h0.28994zm-0.366 0h-0.29062v0.30508h0.29062zm-0.36685 0h-0.28959v0.30508h0.28959zm-0.36582 0h-0.29045v0.30508h0.29045zm-0.36668 0h-0.29046v0.30508h0.29046zm-0.36668 0h-0.2748v0.30508h0.2748zm-0.35085 0h-0.29029v0.30508h0.29029zm-0.36651 0h-0.28994v0.30508h0.28994zm-0.36668 0h-0.2896v0.30508h0.2896zm4.0151 0h-0.2896v0.30508h0.2896zm-0.0153 0.45736v4.2751h-4.2589v-4.2751zm-3.8466 3.9848c-0.0919 0-0.15314-0.06091-0.15314-0.16777 0-0.0764 0.0613-0.13731 0.15314-0.13731 0.0915 0 0.15263 0.06091 0.15263 0.13731 0 0.10686-0.0611 0.16777-0.15263 0.16777zm0-3.4195c-0.0919 0-0.15314-0.0764-0.15314-0.15245 0-0.09154 0.0613-0.15245 0.15314-0.15245 0.0915 0 0.15263 0.06091 0.15263 0.15245 0 0.07605-0.0611 0.15245-0.15263 0.15245zm3.4655 0c-0.0915 0-0.15315-0.0764-0.15315-0.15245 0-0.09154 0.0616-0.15245 0.15315-0.15245 0.0764 0 0.15245 0.06091 0.15245 0.15245 0 0.07605-0.0761 0.15245-0.15245 0.15245zm0 3.4195c-0.0915 0-0.15315-0.06091-0.15315-0.16777 0-0.0764 0.0616-0.13731 0.15315-0.13731 0.0764 0 0.15245 0.06091 0.15245 0.13731 0 0.10686-0.0761 0.16777-0.15245 0.16777zm-1.7405 0.12251c-1.0839 0-1.9693-0.88564-1.9693-1.9695 0-1.0689 0.88547-1.9537 1.9693-1.9537 1.0687 0 1.954 0.88478 1.954 1.9537 0 1.0839-0.8853 1.9695-1.954 1.9695zm0 0.10686h2.0609v-2.0764c0 1.1448-0.9309 2.0764-2.0609 2.0764zm-2.0762-2.0764v2.0764h2.0762c-1.145 0-2.0762-0.93159-2.0762-2.0764zm2.0762-2.0762h-2.0762v2.0762c0-1.145 0.93125-2.0762 2.0762-2.0762zm-0.21406 0.32039 0.0153 0.18325zm-0.45805 0.10686 0.0768 0.16846-0.0153 0.01514zm-0.39679 0.2292v-0.01497l0.10686 0.15245v0.01549zm-0.57987 0.71753 0.16794 0.07623zm-0.122 0.91558 0.18308-0.01532zm0.33553 0.85502 0.15246-0.10634zm0.32109 0.3364v-0.01531l0.12199-0.13783zm0.41159 0.244-0.0153-0.01532 0.0764-0.1676zm0.90113 0.12182-0.0151-0.18291zm1.1907-0.67142-0.15262-0.10686zm0.24417-0.39748-0.18326-0.07605zm-0.21406-1.7706-0.15245 0.12217v-0.01531zm-0.71718-0.56456-0.0761 0.16811zm-1.1756-0.09154h0.0153l0.0306 0.18291zm-0.77879 2.9918-0.0151-0.01514 0.12235-0.12182h0.0153zm2.504-0.01514-0.0151 0.01514-0.122-0.13697h0.0153zm0.45822-0.79393-0.18377-0.04543zm0-0.91593-0.18377 0.0456zm-0.47336-0.79359h0.0151l-0.12183 0.13731-0.0153-0.01514zm-0.79428-0.47319h0.0151l-0.0454 0.18291zm1.6185-0.35119h-2.0609c1.13 0 2.0609 0.93124 2.0609 2.0762zm-3.6181 2.0454c0-0.04525 0-0.10686 0.0153-0.15211v-0.07657c0.0151-0.03046 0.0151-0.07605 0.0305-0.1072 0-0.03063 0-0.04594 0.0151-0.06074v-0.01531c0.0155-0.04612 0.0308-0.09154 0.0461-0.12234l0.015-0.03028v-0.01531c0-0.01531 0.0152-0.01531 0.0152-0.03063 0.0153-0.03011 0.0306-0.06091 0.0461-0.09171l0.56456 0.32039c-0.0607 0.12269-0.10668 0.24486-0.10668 0.38182zm0.18325 0.77862c-0.0308-0.04612-0.0461-0.09154-0.0613-0.15245h-0.015c-0.0153-0.04594-0.0306-0.10686-0.0461-0.15263-0.0151-0.03046-0.0151-0.04577-0.0151-0.07606-0.0305-0.10686-0.0458-0.21406-0.0458-0.32091h0.64113c0 0.13697 0.0459 0.25965 0.10668 0.38182zm0.54942 0.58005c-0.0305-0.01531-0.0764-0.04577-0.122-0.07623h0.0153l-0.0153-0.01549-0.0456-0.01514v-0.01497h-0.0153c-0.0153-0.0308-0.0459-0.04612-0.0764-0.07623h0.015l-0.015-0.01531-0.0303-0.03063-0.0308-0.01549c-0.0303-0.03028-0.0609-0.06074-0.0919-0.10634h0.0158-0.0158l-0.0305-0.04612-0.0155-0.01514c-0.0151-0.03028-0.0305-0.06091-0.0458-0.09171h-0.015l0.5649-0.32057c0.0454 0.06091 0.0761 0.10686 0.13714 0.15263 0.0461 0.04577 0.0919 0.09137 0.1528 0.13731zm0.77896 0.22954c-0.0458 0-0.0922 0-0.13765-0.01549h-0.046-0.0305c-0.0458-0.01531-0.0762-0.01531-0.10703-0.03063-0.0761-0.01531-0.15211-0.04543-0.22868-0.07623h-0.0153c-0.0454-0.01531-0.0919-0.0456-0.13748-0.06074l0.32074-0.56525c0.122 0.06143 0.24417 0.09171 0.38182 0.10686zm0.7781-0.18308c-0.0303 0.01514-0.0761 0.04543-0.12165 0.06074v-0.01531l-0.0308 0.01531-0.015 0.01549-0.0305 0.01531c-0.0306 0-0.0619 0.01514-0.0922 0.03011h-0.015c-0.0153 0-0.0461 0.01531-0.0613 0.01531h-0.0151c-0.0611 0.01531-0.10685 0.03063-0.16759 0.03063h-0.0308c-0.0458 0.01549-0.0761 0.01549-0.122 0.01549v-0.64148c0.13731-0.01514 0.25931-0.04543 0.38148-0.10686zm0.58022-0.56525c-0.0151 0.04611-0.0458 0.09171-0.0761 0.13766l-0.0306 0.03028-0.0153 0.01531c-0.0305 0.03063-0.0452 0.06126-0.0607 0.07605l-0.0308 0.01549-0.0151 0.03063-0.0311 0.01531h0.0158c-0.046 0.03011-0.0768 0.06091-0.1072 0.0912h-0.0153v0.01514l-0.0153 0.01549c-0.0456 0.03046-0.0761 0.04594-0.122 0.07623l-0.32074-0.56456c0.0465-0.0308 0.1072-0.0764 0.15314-0.12217 0.0456-0.04577 0.0912-0.09171 0.122-0.15263zm0.22885-0.7633c0 0.04577 0 0.09137-0.0153 0.13697 0 0.06177-0.0151 0.12269-0.0301 0.18394-0.0306 0.13714-0.0768 0.25896-0.13749 0.38114l-0.5649-0.32022c0.0611-0.12217 0.0915-0.24486 0.10668-0.38182zm-0.18291-0.77879c0.0306 0.04612 0.0456 0.09171 0.0607 0.13766l0.0153 0.01497c0 0.01531 0 0.0308 0.0155 0.0308v0.01531c0.0153 0.04543 0.0305 0.10686 0.046 0.1676 0.0301 0.1072 0.0454 0.21406 0.0454 0.33588h-0.64113c0-0.13697-0.0456-0.27445-0.0915-0.38182zm-1.328-0.82439c0.0459 0 0.0914 0 0.13731 0.01532h0.0762c0.0458 0.01497 0.0764 0.01497 0.10685 0.03046h0.0151l0.046 0.01531h0.0153c0.0453 0.01583 0.0919 0.03097 0.13766 0.04629v0.01531h0.015c0.0153 0 0.0308 0.01497 0.0461 0.01497l0.0151 0.01532c0.0306 0 0.0609 0.0308 0.0912 0.04611l-0.32039 0.54925c-0.12217-0.06091-0.24417-0.09154-0.38148-0.10651zm-0.77879 0.19908c0.0456-0.03063 0.076-0.04611 0.12251-0.0764h0.015l0.046-0.01531c0.0459-0.01531 0.0761-0.03046 0.12199-0.04629h0.0153l0.0306-0.01531h0.0301c0.0459-0.01549 0.0919-0.01549 0.13748-0.03046h0.0763v-0.01532h0.1072v0.64182c-0.13765 0.01497-0.27514 0.0456-0.38182 0.10651zm0.93159-0.21423c-0.0461-0.01549-0.10686-0.01549-0.1528-0.01549v-0.19805h0.18291zm0.0452 0h-0.0151l0.0306-0.18325zm0.13748 0.03046c-0.0305-0.01532-0.0762-0.01532-0.10668-0.03046l0.0305-0.19857c0.0458 0.01531 0.0914 0.01531 0.12217 0.0308zm0.21389 0.0616c-0.0454-0.01583-0.0919-0.03115-0.13766-0.04663l0.0616-0.19788c0.0458 0.01514 0.10686 0.04543 0.15246 0.06074zm0.16794 0.09154c-0.0306-0.0308-0.0611-0.04577-0.0915-0.06108l0.0761-0.18343c0.0461 0.01497 0.0764 0.03028 0.12234 0.06091zm0.19822 0.12217c-0.0458-0.0308-0.0761-0.0616-0.12217-0.09154l0.10686-0.1688c0.0459 0.0308 0.0919 0.06177 0.13783 0.0924zm0.0306 0.01497 0.12234-0.13714-0.1072 0.13714zm0.1072 0.10686c-0.0153-0.0308-0.0461-0.06108-0.0767-0.0764l0.12268-0.1676c0.0303 0.03063 0.0761 0.06057 0.10669 0.09137zm0.15263 0.15228c-0.0306-0.03011-0.0613-0.06091-0.0912-0.10686l0.15211-0.13714c0.0306 0.04594 0.0764 0.09171 0.10668 0.12217v0.01497zm0.10668 0.16828c-0.0151-0.03046-0.0306-0.06091-0.0458-0.0912l0.15262-0.12251c0.0305 0.03028 0.0609 0.07605 0.0761 0.10634zm0.10685 0.1984c-0.0155-0.04543-0.0308-0.09154-0.0609-0.13714l0.16777-0.09171h0.0151c0.0305 0.04577 0.0459 0.10703 0.0768 0.15263zm0.0153 0.03063 0.16794-0.07605v0.01497zm0.0607 0.15263c-0.0151-0.04612-0.0301-0.0764-0.0456-0.10686l0.19874-0.0764c0.0151 0.0456 0.0306 0.0764 0.0306 0.12217zm0.0459 0.21406c-0.0151-0.04594-0.0151-0.09154-0.0306-0.138l0.19892-0.04594v-0.0148c0.0151 0.06074 0.0303 0.12217 0.0303 0.18343zm0 0.04577v-0.01549l0.18343-0.01531v0.01531zm0.0151 0.13697c0-0.03011 0-0.06091-0.0151-0.09171l0.21389-0.03011v0.12182zm-0.0151 0.22868c0.0151-0.0456 0.0151-0.0912 0.0151-0.13697h0.19875c0 0.06074 0 0.10686-0.0153 0.1676zm0 0.04594 0.18343 0.03115h-0.0151zm-0.0306 0.15297c0-0.03028 0.0155-0.07623 0.0155-0.10651l0.21371 0.03028c-0.0151 0.03046-0.0151 0.07623-0.0303 0.12217zm-0.0761 0.21371c0.0151-0.04594 0.0456-0.09154 0.0456-0.13766l0.19891 0.04612h0.0153c-0.0308 0.06074-0.0459 0.12182-0.0611 0.16777zm-0.0762 0.16794c0.015-0.0308 0.0301-0.0616 0.0454-0.09171l0.19874 0.07623c-0.0308 0.0456-0.0461 0.07657-0.0613 0.12269h-0.0151zm-0.12234 0.18343c0.0306-0.0308 0.0613-0.07623 0.0764-0.12234l0.18291 0.10686c-0.0301 0.06109-0.0607 0.10686-0.0915 0.15263h-0.0153zm-0.12148 0.15245c0.0299-0.0308 0.0452-0.06108 0.0606-0.07623l0.16794 0.12182c-0.0153 0.03046-0.0458 0.06126-0.0764 0.09137zm-0.16863 0.15245c0.0459-0.03063 0.0761-0.06091 0.1072-0.09171l0.15263 0.13766c-0.046 0.0456-0.0912 0.09189-0.13749 0.12217zm-0.0306 0.03046 0.10669 0.13766zm-0.12217 0.0764c0.0308-0.01531 0.0613-0.03063 0.0917-0.06091l0.12217 0.16828c-0.0306 0.03011-0.0764 0.04543-0.10703 0.07606zm-0.19788 0.10737c0.0458-0.01531 0.0912-0.04611 0.12183-0.06108l0.10685 0.16794v0.01497c-0.0459 0.01514-0.10685 0.04577-0.15262 0.07606v-0.01497zm-0.0461 0.01514h0.0153l0.0611 0.16777zm-0.13766 0.0456c0.0303 0 0.0616-0.01531 0.10737-0.03063l0.0764 0.18325v0.01531c-0.0461 0.01514-0.0764 0.03063-0.12217 0.03063zm-0.0303 0.01531 0.0454 0.16777h-0.0151zm-0.18343 0.04577c0.0459-0.01497 0.0919-0.01497 0.13748-0.03028l0.046 0.19788c-0.046 0.01531-0.10703 0.01531-0.16794 0.0308zm-0.19805 0.01514c0.0305 0 0.0762 0 0.10668-0.01514l0.0306 0.1984v0.01532h-0.13731zm-0.22937-0.01514c0.0459 0 0.10737 0.01514 0.15314 0.01514v0.19857c-0.0616 0-0.12234 0-0.1836-0.01532zm-0.0459 0h0.0155l-0.0305 0.1676zm-0.13714-0.03028c0.0306 0 0.0764 0.01531 0.10702 0.01531l-0.0306 0.19788c-0.0458 0-0.0914-0.01531-0.122-0.01531zm-0.0456-0.01549-0.0306 0.16777h-0.0153zm-0.16794-0.06091c0.0458 0.01497 0.0919 0.03028 0.13731 0.0456l-0.0454 0.19857c-0.0613-0.01549-0.12217-0.03063-0.16863-0.04594zm-0.16811-0.07623c0.0303 0.01497 0.0609 0.03028 0.0914 0.04577l-0.076 0.18291c-0.0459-0.01531-0.0919-0.03063-0.122-0.06074zm-0.19857-0.12269c0.0459 0.03046 0.0766 0.04577 0.12199 0.0764l-0.0912 0.18343h-0.0153c-0.0456-0.03063-0.0915-0.06091-0.13731-0.10686zm-0.1368-0.12217c0.0299 0.01531 0.0454 0.04612 0.0761 0.06108l-0.12217 0.16846h-0.0152c-0.0306-0.03097-0.0609-0.0616-0.0921-0.09189zm-0.15331-0.18291c0.0311 0.04594 0.0614 0.07657 0.0921 0.12217l-0.13782 0.15245h-0.0153c-0.0303-0.0456-0.0762-0.09171-0.10685-0.13714zm-0.10669-0.13714c0.0153 0.03063 0.0303 0.06091 0.0609 0.07606l-0.18291 0.12217c-0.0155-0.03046-0.046-0.06108-0.0611-0.10686zm-0.10668-0.21423c0.0153 0.04594 0.0303 0.09154 0.0607 0.13766l-0.18291 0.1072c-0.0305-0.04612-0.0458-0.1072-0.0766-0.15332l0.0155-0.01549zm-0.0153-0.03028-0.16794 0.07623v-0.01531zm-0.0611-0.13766c0.0151 0.0308 0.0305 0.0616 0.0456 0.09171l-0.19788 0.07623v0.01549c-0.0153-0.04577-0.0308-0.09171-0.0461-0.13731h0.0153zm0-0.04543-0.18308 0.04543zm-0.0458-0.1836c0.0153 0.04646 0.0153 0.1072 0.0305 0.15297l-0.19823 0.04594c-0.0153-0.06091-0.0305-0.10703-0.0305-0.16777zm-0.0151-0.18291c0 0.03046 0 0.07605 0.0151 0.10686l-0.21371 0.01531v-0.12217zm0.0151-0.22868c-0.0151 0.04525-0.0151 0.09137-0.0151 0.13697h-0.19857c0-0.06091 0-0.10668 0.0155-0.16777zm0-0.04577-0.18308-0.01531v-0.01549zm0.0305-0.138c-0.0151 0.03115-0.0151 0.06143-0.0305 0.1072l-0.19822-0.03046c0.0151-0.0456 0.0151-0.09206 0.0305-0.13748v0.0148zm0.0153-0.04594-0.18308-0.0456zm0.0456-0.16777c-0.0151 0.04611-0.0305 0.09154-0.0456 0.13766l-0.18308-0.06109h-0.0153c0.0153-0.06126 0.0461-0.10686 0.0611-0.1676zm0.0915-0.18274c-0.0153 0.03011-0.0305 0.06091-0.0454 0.10668l-0.19856-0.09137c0.0153-0.03046 0.0459-0.07657 0.0611-0.10703zm0.122-0.1836c-0.0305 0.03114-0.0607 0.07674-0.0761 0.12234l-0.0914-0.06091-0.0917-0.04646c0.0305-0.04543 0.0611-0.10634 0.0917-0.13714h0.015zm0.0306-0.03046h-0.0151l-0.13748-0.12234 0.15263 0.10686zm0.25999-0.27462c-0.0306 0.03046-0.0459 0.04577-0.0767 0.06108l0.0308 0.03029c0.0153-0.01532 0.0459-0.0456 0.0611-0.06091h0.015l0.0155-0.01531c0.0456-0.03011 0.0764-0.06091 0.122-0.09171h0.0151l0.32074 0.56525c-0.0301 0.01531-0.0609 0.03011-0.0761 0.0456l0.0305 0.03063c0.13749-0.12217 0.32022-0.18308 0.53428-0.18308 0.21354 0 0.42742 0.09171 0.58005 0.22868h0.0613c-0.0459-0.0456-0.0915-0.09171-0.15314-0.12183l0.3056-0.56525h0.0151c0.0613 0.04612 0.10686 0.07657 0.16794 0.12234l0.0151 0.01531c0.0308 0.03029 0.0609 0.06109 0.1072 0.0912 0.0308 0.04594 0.0762 0.09171 0.12234 0.13748v0.01531l0.0152 0.01497c0.0303 0.04646 0.0609 0.07691 0.0761 0.12268l-0.54942 0.32022c-0.0308-0.04543-0.0764-0.10651-0.10685-0.15245v0.07623c0.12217 0.13766 0.21371 0.35137 0.21371 0.56508 0 0.24451-0.10686 0.45771-0.25931 0.62565-0.16846 0.1528-0.38217 0.26017-0.61085 0.26017-0.24468 0-0.45805-0.10737-0.62565-0.26017-0.16845-0.16794-0.25982-0.38114-0.25982-0.62565 0-0.1984 0.0609-0.382 0.18291-0.51914l-0.0306-0.03046c-0.015 0.01531-0.0303 0.04577-0.0454 0.06074l-0.54993-0.32022c0.0306-0.06091 0.0764-0.12268 0.12268-0.16811v-0.01549c0.0152 0 0.0152-0.01514 0.0306-0.03011l-0.0306-0.0308c-0.0151 0.01549-0.0151 0.0308-0.031 0.04577l-0.16794-0.13714c0.0308-0.01549 0.0459-0.0308 0.0613-0.06108v-0.01531-0.03046-0.03046l0.0456-0.01531c0.0151-0.0308 0.0458-0.0308 0.0769-0.0308 0.0303-0.02994 0.0609-0.04525 0.10686-0.07605zm0.15211-0.10651c-0.0301 0.02994-0.0609 0.04543-0.0912 0.06074l-0.12217-0.16777c0.0459-0.01514 0.0764-0.04629 0.12217-0.07674zm0.2144-0.10703c-0.0465 0.03063-0.0922 0.0456-0.13782 0.06091l-0.10669-0.16811c0.0456-0.03063 0.10669-0.06091 0.1676-0.0764zm0.1676-0.06177c-0.0306 0.01549-0.0607 0.0308-0.10668 0.0308l-0.0768-0.18325c0.0461-0.01531 0.0919-0.03028 0.138-0.04543zm0.21337-0.04543c-0.0454 0.01514-0.0912 0.01514-0.13714 0.03046l-0.0456-0.19822c0.0456-0.01549 0.10668-0.0308 0.16777-0.0308zm0.19908-0.01549h-0.1072l-0.0151-0.19805h-0.0153 0.13765zm0.0456 1.7708c-0.0303 0-0.0607-0.0148-0.0914-0.0148l-0.10737 0.1072c-0.0153 0.06074-0.0153 0.10651-0.0459 0.13714-0.015 0.01532-0.0454 0.01532-0.0761 0-0.0305-0.0456-0.0305-0.0456-0.076-0.09171-0.0306-0.01514-0.0306-0.04543 0-0.07605 0.0301-0.03114 0.076-0.04646 0.12199-0.04646l0.122-0.10651c-0.0305-0.01531-0.0305-0.06126-0.0305-0.09154v-0.04594l-1.0995-1.1754v-0.03046h0.0306c0-0.01497 0.0153-0.01497 0.0153 0l1.1601 1.084c0.016-0.01514 0.0465-0.01514 0.0767-0.01514 0.0306 0 0.0766 0.01514 0.10686 0.03028l0.18308-0.1676c-0.0153 0-0.0305-0.01531-0.0305-0.03114-0.0308-0.01531-0.0308-0.06126 0-0.07606 0.0305-0.0308 0.10668-0.04611 0.18291-0.04611l0.0303-0.03028v-0.07657h0.10737v0.09154h-0.0607l-0.0466 0.04612c0 0.07605 0 0.1528-0.0303 0.18326-0.0303 0.01549-0.0762 0.01549-0.0914 0l-0.0153-0.01514-0.18308 0.18308c0.0153 0.03028 0.0308 0.06074 0.0308 0.09154 0 0.03028-0.0155 0.04577-0.0155 0.06091 0.0456 0.07623 0.13714 0.13714 0.22868 0.16777 0 0 0.0155 0 0.0155 0.01583 0 0.01532 0 0.03063-0.0155 0.03063-0.0305 0-0.0305 0.01497-0.0305 0.03028-0.0151 0-0.0151 0.01514-0.0151 0.03046 0 0.01549-0.0153 0.0308-0.0153 0.0308-0.0306 0-0.0458 0-0.0458 0.01497-0.0153 0-0.0305 0.01531-0.0305 0.03063h-0.0153c-0.0155 0.01532-0.0155 0-0.0306 0-0.0301-0.10686-0.0915-0.16777-0.18291-0.22954h-0.0306zm-1.5115 2.1378h-0.28994v0.29028h0.28994zm0.36651 0h-0.29029v0.29028h0.29029zm0.35085 0h-0.2748v0.29028h0.2748zm0.36668 0h-0.29046v0.29028h0.29046zm0.36668 0h-0.29045v0.29028h0.29045zm0.36582 0h-0.28959v0.29028h0.28959zm0.36685 0h-0.29062v0.29028h0.29062zm0.366 0h-0.28994v0.29028h0.28994zm0.36633 0h-0.28959v0.29028h0.28959zm0.36651 0h-0.29011v0.29028h0.29011zm0.36617 0h-0.2896v0.29028h0.2896zm-4.0151 0h-0.2896v0.29028h0.2896zm4.3818 0.76347h-5.0226v7.1443h5.0226zm-0.87016 3.3428h0.24417v-3.2057h-0.24417zm-0.44274 0h0.244v-3.2057h-0.244zm-0.44273 0h0.24399v-3.2057h-0.24399zm-0.44291 0h0.24468v-3.2057h-0.24468zm-0.44291 0h0.25983v-3.2057h-0.25983zm-0.4269 0h0.24399v-3.2057h-0.24399zm-0.44274 0h0.244v-3.2057h-0.244zm-0.44274 0h0.24434v-3.2057h-0.24434zm-0.44308 0h0.24452v-3.2057h-0.24452zm-0.44239 0h0.244v-3.2057h-0.244zm4.4119 0h0.24452v-3.2057h-0.24452zm-0.44273 3.6644h0.24417v-3.4808h-0.24417zm-0.44274 0h0.244v-3.4808h-0.244zm-0.44273 0h0.24399v-3.4808h-0.24399zm-0.44291 0h0.24468v-3.4808h-0.24468zm-0.44291 0h0.25983v-3.4808h-0.25983zm-0.4269 0h0.24399v-3.4808h-0.24399zm-0.44274 0h0.244v-3.4808h-0.244zm-0.44274 0h0.24434v-3.4808h-0.24434zm-0.44308 0h0.24452v-3.4808h-0.24452zm-0.44239 0h0.244v-3.4808h-0.244zm4.4119 0h0.24452v-3.4808h-0.24452zm-2.3969-17.052h-0.42742v0.7633h0.42742zm0.53428 0h-0.4276v0.7633h0.4276zm0.51896 0h-0.42742v0.7633h0.42742zm0.53445 0h-0.42759v0.7633h0.42759zm-2.122 0h-0.42776v0.7633h0.42776zm2.1832-1.3129v-0.10737h0.0912v0.10737l-0.0454-0.04543zm-2.7634 0v-0.10737h0.0917v0.10737l-0.0459-0.04543zm1.9546-0.10737-0.15315-0.27462-0.0305-0.06091-0.1984 0.33554 0.0461 0.0308 0.15228-0.244 0.12182 0.244zm-0.67211 0-0.15262-0.27462-0.0458-0.06091-0.18309 0.33554 0.0609 0.0308 0.12217-0.244 0.13713 0.244zm0.9161 0.62651-0.15245-0.27514-0.0458-0.06074-0.19892 0.33588 0.0762 0.0308 0.12269-0.24486 0.13714 0.24486zm-0.57987 0-0.1528-0.27514-0.0306-0.06074-0.19874 0.33588 0.0609 0.0308 0.13783-0.24486 0.122 0.24486zm-0.58022 0-0.13749-0.27514-0.0456-0.06074-0.19874 0.33588 0.0607 0.0308 0.138-0.24486 0.12183 0.24486zm0.58022-1.3132-0.1528-0.24417-0.0306-0.07606-0.19874 0.32022 0.0609 0.0456 0.13783-0.22868 0.122 0.22868zm-0.24417-1.4347c-0.16846 1.0534-0.65714 1.9843-0.99267 2.9766v-0.01531l0.12217 0.21371 0.0151 0.03028 0.122-0.244 0.12199 0.21371 0.016 0.03028 0.0146-0.03028 0.12269-0.21371 0.122 0.244 0.015-0.03028 0.12217-0.21371 0.12182 0.244 0.0153-0.03028 0.12251-0.21371 0.10686 0.21371 0.0151 0.03028 0.0153-0.03028 0.12217-0.21371 0.12183 0.244 0.0153-0.03028 0.12269-0.21371 0.12199 0.244 0.0152-0.03028 0.12217-0.21371 0.0915 0.21371 0.0303 0.03028 0.0153-0.03028 0.10702-0.21371c0.0301-0.04577-0.93107-2.5341-0.99215-2.9613zm0.0607-0.54976c0 0.04577-0.0153 0.09154-0.0153 0.13766h0.0153v-0.13766zm1.2823 3.6179-0.0607 0.12217-0.0613 0.12217h-0.0148l-0.0463-0.12217-0.0764-0.12217-0.0766 0.12217-0.0458 0.12217-0.0611-0.12217-0.0761-0.12217-0.0611 0.12217-0.0609 0.12217-0.0613-0.12217-0.0607-0.12217-0.0769 0.12217-0.0611 0.12217-0.0607-0.12217-0.0611-0.12217-0.076 0.12217-0.0461 0.12217h-0.0153l-0.0609-0.12217-0.0611-0.12217-0.0767 0.12217-0.0458 0.12217h-0.0153l-0.0609-0.12217-0.0609-0.12217-0.0762 0.12217-0.0459 0.12217h-0.015l-0.0613-0.12217-0.0607-0.12217-0.0766 0.12217-0.0461 0.12217h-0.0146l-0.0618-0.12217-0.0762-0.12217-0.0609 0.12217-0.0611 0.12217-0.0459-0.12217-0.0761-0.12217-0.0761 0.12217-0.046 0.12217h-0.0151l-0.0458-0.12217-0.0769-0.12217-0.0456 0.07623v-0.53445l-0.0459 0.0308-0.0458-0.0308v1.8783h2.8546v-1.8783l-0.0454 0.0308-0.0458-0.0308v0.53445zm0.25931-0.6561-0.16759-0.16794-0.16794 0.16794 0.16794 0.1676zm-2.7626 0-0.16845-0.16794-0.16777 0.16794 0.16777 0.1676zm1.4346-2.458h-0.44274v-0.32074h0.44274zm-1.1296 6.8546h-0.54942v0.74799h0.54942zm0.77827 0h-0.56473v0.74799h0.56473zm0.76399 0h-0.56508v0.74799h0.56508zm0.76313 0h-0.56525v0.74799h0.56525zm0.74765 0h-0.53428v0.74799h0.53428zm-3.8162 0h-0.54959v0.74799h0.54959zm1.1758-1.6032-0.138-0.27514-0.0458-0.06074-0.19822 0.33588 0.0609 0.0308 0.13731-0.22954 0.12252 0.22954zm0.28942 0.61068-0.13713-0.25982-0.0456-0.06074-0.19857 0.32057 0.0611 0.03063 0.13749-0.22868 0.12199 0.22868zm0.76382 0-0.13765-0.25982-0.046-0.06074-0.19822 0.32057 0.0607 0.03063 0.13748-0.22868 0.13783 0.22868zm0.77845 0-0.16794-0.25982-0.0303-0.06074-0.18377 0.32057 0.0458 0.03063 0.138-0.22868 0.13697 0.22868zm-0.382-0.61068-0.16759-0.27514-0.0306-0.06074-0.19823 0.33588 0.0611 0.0308 0.13714-0.22954 0.12217 0.22954zm-0.76278 0-0.1528-0.27514-0.0306-0.06074-0.19874 0.33588 0.0609 0.0308 0.13783-0.22954 0.122 0.22954zm-1.1455 0.61068-0.15211-0.25982-0.046-0.06074-0.19874 0.32057 0.0609 0.03063 0.13782-0.22868 0.122 0.22868zm-0.24383-1.2363-0.73319 1.8164 0.0153 0.01531 0.0153 0.03063 0.13766-0.19857 0.10651 0.16794 0.0308 0.03063 0.0306-0.03063 0.10651-0.16794 0.13748 0.21371 0.0303-0.04577 0.10754-0.18274 0.0914 0.18274 0.0458 0.04577 0.12183-0.21371 0.12199 0.16794 0.0155 0.03063 0.0305-0.03063 0.10685-0.16794 0.10737 0.16794 0.0303 0.03063 0.0308-0.03063 0.10685-0.16794 0.10652 0.16794 0.0306 0.04577 0.0301-0.04577 0.10685-0.18274 0.0922 0.18274 0.0456 0.04577 0.0155-0.04577 0.10651-0.16794 0.12217 0.16794 0.0153 0.03063 0.13714-0.19857 0.10737 0.16794 0.0306 0.03063 0.0305-0.03063 0.10685-0.16794 0.13697 0.21371 0.0305-0.04577 0.10685-0.18274 0.10669 0.18274 0.0311 0.04577 0.122-0.21371 0.12217 0.16794 0.0151 0.03063 0.13731-0.19857 0.10668 0.16794 0.0308 0.03063 0.0308-0.03063 0.10668-0.16794 0.13731 0.19857 0.0153-0.03063 0.0153-0.01531-0.73285-1.8164zm3.9075 2.0609v-0.10686h0.0766v0.12182l-0.0459-0.04577zm-5.4952 0.01497v-0.12182h0.076v0.10686l-0.0301-0.0308zm5.1444-1.1907v-0.10686h0.0767v0.10686l-0.0308-0.04577zm-4.8092 0v-0.10686h0.0915v0.10686l-0.0454-0.04577zm-0.13714 1.3286-0.15211-0.1528-0.16794 0.1528 0.16794 0.18308zm5.4962 0-0.16845-0.1528-0.15246 0.1528 0.15246 0.18308zm-0.33622-1.1906-0.16777-0.15332-0.16794 0.15332 0.16794 0.18291zm-4.7934 0-0.18343-0.15332-0.16777 0.15332 0.16777 0.18291zm3.8315 18.716h0.25965v-3.1903h-0.25965zm-0.42725 0h0.24399v-3.1903h-0.24399zm-0.44291 0h0.24434v-3.1903h-0.24434zm-0.44256 0h0.24468v-3.1903h-0.24468zm-0.44274 0h0.24451v-3.1903h-0.24451zm-0.44256 0h0.24417v-3.1903h-0.24417zm-0.44274 0h0.25948v-3.1903h-0.25948zm-0.42742 0h0.24451v-3.1903h-0.24451zm-0.44291 0h0.24417v-3.1903h-0.24417zm-0.44256 0h0.24399v-3.1903h-0.24399zm4.3966 0h0.24434v-3.1903h-0.24434zm0.24434 3.481v-3.2974h-0.24434v3.2974h-0.18326v-3.2974h-0.25965v3.2974h-0.18326v-3.2974h-0.24399v3.2974h-0.19857v-3.2974h-0.24434v3.2974h-0.19788v-3.2974h-0.24468v3.2974h-0.19823v-3.2974h-0.24451v3.2974h-0.19839v-3.2974h-0.24417v3.2974h-0.18326v-3.2974h-0.25948v3.2974h-0.18291v-3.2974h-0.24451v3.2974h-0.19874v-3.2974h-0.24417v3.2974h-0.19857v-3.2974h-0.24399v3.2974h-0.19857v-6.8241h5.0379v6.8241zm0.58022 3.801h-5.9084v-3.5261h5.9084zm-0.16846-23.876h-0.27411v-1.954l-0.0308 0.03028-0.0459-0.03028v0.62565l-0.0609-0.07623-0.0611 0.10703-0.0613 0.10686-0.0762-0.10686-0.0613-0.10703-0.076 0.10703-0.0611 0.10686-0.0761-0.10686-0.0613-0.10703-0.0762 0.10703-0.0613 0.10686-0.0611-0.10686-0.0764-0.10703-0.0613 0.10703-0.076 0.10686-0.0611-0.10686-0.0762-0.10703-0.0606 0.10703-0.0614 0.10686-0.0767-0.10686-0.0611-0.10703-0.0761 0.10703-0.0613 0.10686-0.0764-0.10686-0.0606-0.10703-0.0766 0.10703-0.0607 0.10686-0.0619-0.10686-0.0761-0.10703-0.0609 0.10703-0.0762 0.10686-0.0609-0.10686-0.0766-0.10703-0.0609 0.10703-0.0611 0.10686-0.0767-0.10686-0.0611-0.10703-0.0762 0.10703-0.0607 0.10686-0.0764-0.10686-0.0607-0.10703-0.0767 0.10703-0.0609 0.10686-0.0611-0.10686-0.0766-0.10703-0.0609 0.10703-0.0764 0.10686-0.0609-0.10686-0.0766-0.10703-0.0607 0.10703-0.0611 0.10686-0.0762-0.10686-0.0609-0.10703-0.0769 0.10703-0.0609 0.10686-0.0764-0.10686-0.0611-0.10703-0.076 0.10703-0.0611 0.10686-0.0607-0.10686-0.0766-0.10703-0.0614 0.10703-0.0762 0.10686-0.0609-0.10686-0.0764-0.10703-0.0613 0.10703-0.0607 0.10686-0.0764-0.10686-0.0607-0.10703-0.0619 0.09154v-0.64096l-0.0454 0.03028-0.0461-0.03028v1.954h-0.25914v-0.7633l-0.0301 0.0456-0.0459-0.0456v6.3353h5.5718v-6.3353l-0.0459 0.0456-0.0306-0.0456v0.7633"
             id="path340" />
          <path
             d="m-210.4-21.626-0.51896 4.8243c-0.12234-0.03114-0.24434-0.06126-0.382-0.1072l0.39714-3.5266c0.0305-0.35051-0.27479-0.6561-0.70239-0.71702-0.42725-0.04612-0.79358 0.19788-0.82438 0.56456l-0.36617 3.3894c-0.13748-0.01549-0.25965-0.0308-0.39696-0.04612l0.36633-3.3889c0.0306-0.3512-0.27479-0.67159-0.68673-0.71753-0.41245-0.04629-0.7941 0.19857-0.82439 0.54976l-0.38216 3.4502c-0.122-0.01531-0.244-0.01531-0.35085-0.01531h-0.0458l0.38165-3.4813c0.0305-0.35085-0.27497-0.67142-0.68691-0.71736-0.42759-0.04577-0.7941 0.19874-0.83987 0.54959l-0.39662 3.7253c-0.13748 0.01531-0.2748 0.03011-0.41245 0.0456l0.41245-3.8165c0.0458-0.33622-0.2748-0.67176-0.68708-0.71753-0.4121-0.04543-0.7941 0.19857-0.82438 0.56473l-0.47319 4.2592c-0.1528 0.03028-0.32074 0.07623-0.4732 0.12183l0.61051-5.6783zm0.36651-3.2826-0.25965 2.2902-8.0911-0.8853 0.24399-2.2899zm0.35102-3.2666-0.24434 2.2748-8.1062-0.88564 0.24417-2.2748zm0.36634-3.2824-0.25965 2.2749-8.1064-0.88582 0.25966-2.2744zm0.35137-3.2824-0.24434 2.2749-8.1066-0.88547 0.24417-2.2744zm-6.1678-3.5414-0.18342 1.5113-0.51862-0.06108 0.15245-1.5115c0.0305-0.12165 0.15297-0.21388 0.30525-0.1836 0.13766 0 0.24434 0.12269 0.24434 0.24486zm0.73302 0.07605-0.16811 1.5115-0.53445-0.04543 0.16828-1.5118c0.015-0.13714 0.13714-0.21319 0.28994-0.19805 0.15245 0.01531 0.25948 0.12182 0.24434 0.24382zm0.74782 0.09188-0.16777 1.5113-0.53445-0.06108 0.16777-1.5116c0.0155-0.12182 0.13765-0.21337 0.29011-0.19805 0.13748 0.01549 0.24434 0.12182 0.24434 0.25948zm0.73301 0.07606-0.16811 1.5113-0.53445-0.06074 0.16811-1.5118c0.0153-0.12182 0.13714-0.21354 0.28994-0.18274 0.15263 0 0.25948 0.12182 0.24451 0.24399zm0.74765 0.07623-0.16777 1.5115-0.53411-0.0456 0.16794-1.5116c0.0153-0.13731 0.13732-0.21354 0.28994-0.21354 0.13749 0.03063 0.244 0.13697 0.244 0.25931zm0.73301 0.09206-0.15279 1.5109-0.54942-0.06108 0.18291-1.5116c0-0.12182 0.13765-0.21337 0.27514-0.19788 0.1528 0.01531 0.27479 0.12182 0.24416 0.25965zm0.74816 0.07623-0.16794 1.5109-0.53445-0.06074 0.16795-1.5113c0.0153-0.12251 0.13731-0.21405 0.29011-0.18343 0.15262 0 0.25965 0.12269 0.24433 0.24451zm0.73268 0.07606-0.15246 1.5118-0.53445-0.04629 0.16777-1.5108c0-0.13766 0.13749-0.2144 0.27497-0.2144 0.15263 0.03063 0.27462 0.13783 0.24417 0.25965zm0.74816 0.09171-0.16811 1.5118-0.53428-0.06143 0.16794-1.5266c0.0153-0.10686 0.15245-0.1984 0.30542-0.18308 0.13714 0.01531 0.24417 0.12234 0.22903 0.25931zm-7.038 2.5802-0.16795 1.5109-0.51879-0.06109 0.15229-1.5113c0.0155-0.12217 0.15297-0.21371 0.29028-0.19822 0.15262 0.01531 0.25965 0.12217 0.24417 0.25965zm0.74833 0.07623-0.16812 1.5108-0.53444-0.06057 0.16811-1.5111c0.0153-0.12269 0.13731-0.21423 0.28994-0.1836 0.15262 0 0.25948 0.12183 0.24451 0.24451zm0.73267 0.07605-0.16777 1.5115-0.51913-0.06126 0.15245-1.4955c0.0308-0.13731 0.1528-0.2144 0.3056-0.2144 0.13731 0.03063 0.24399 0.13783 0.22885 0.25965zm0.74782 0.09171-0.16794 1.5118-0.53445-0.06143 0.16828-1.5113c0.0151-0.12217 0.13749-0.21337 0.28994-0.1984 0.15297 0.01531 0.25965 0.12234 0.24417 0.25931zm0.74833 0.07623-0.18326 1.5118-0.51913-0.06091 0.1528-1.5118c0.0305-0.12183 0.15245-0.21337 0.30542-0.18308 0.13714 0 0.24417 0.12217 0.24417 0.244zm0.73267 0.07623-0.16777 1.5118-0.53445-0.06091 0.16777-1.4963c0.0153-0.13714 0.13749-0.21354 0.28994-0.21354 0.15297 0.03028 0.25965 0.13714 0.24451 0.25896zm0.74816 0.09154-0.16828 1.5118-0.53411-0.06091 0.16794-1.5271c0.0153-0.10686 0.13731-0.19788 0.29011-0.18291 0.13731 0.01514 0.24434 0.12217 0.24434 0.25914zm0.7325 0.06177-0.15245 1.5263-0.54959-0.06091 0.18342-1.5118c0-0.12183 0.13714-0.21337 0.27428-0.18308 0.15297 0 0.25966 0.12234 0.24434 0.22954zm0.74816 0.09154-0.16794 1.5108-0.53445-0.06074 0.16812-1.496c0.0151-0.13748 0.13748-0.21388 0.29011-0.21388 0.13748 0.03028 0.25948 0.13714 0.24416 0.25982zm0.73268 0.09137-0.15246 1.4958-0.53427-0.0456 0.16794-1.5263c0-0.12269 0.13731-0.19874 0.27479-0.18394 0.15246 0.01532 0.27463 0.12269 0.244 0.26zm-7.0224 2.5795-0.16794 1.4965-0.54959-0.0456 0.16794-1.5118c0.0153-0.13714 0.15246-0.2132 0.30525-0.19788 0.15297 0.0148 0.25966 0.12182 0.24434 0.25879zm0.73268 0.07674-0.16777 1.5113-0.51914-0.06091 0.1528-1.5116c0.0151-0.12182 0.15246-0.21354 0.29011-0.19822 0.15245 0.01497 0.25931 0.13731 0.244 0.25948zm0.74816 0.07657-0.16794 1.5109-0.53428-0.06091 0.16777-1.5108c0-0.12268 0.13765-0.2144 0.29011-0.18377 0.15279 0.01497 0.25948 0.12182 0.24434 0.24451zm0.73284 0.09154-0.16794 1.4956-0.51913-0.0456 0.15262-1.5109c0.0153-0.138 0.1528-0.21405 0.30543-0.19874 0.13731 0.0148 0.24434 0.12217 0.22902 0.25965zm0.74782 0.0764-0.16777 1.5111-0.53411-0.06126 0.16777-1.5109c0.0151-0.12234 0.13749-0.21423 0.28994-0.19874 0.1528 0.01531 0.25948 0.13748 0.24417 0.25982zm0.74816 0.07606-0.18326 1.5113-0.51913-0.06074 0.15297-1.5115c0.0305-0.122 0.15262-0.21371 0.30525-0.19857 0.13714 0.01549 0.24417 0.13731 0.24417 0.25948zm0.73284 0.07623-0.16794 1.5116-0.53427-0.04594 0.16811-1.5111c0.0151-0.13766 0.13714-0.21371 0.28994-0.19857 0.15245 0.01531 0.25948 0.12182 0.24416 0.244zm0.74816 0.09171-0.16777 1.5113-0.53444-0.06091 0.16776-1.5115c0.0153-0.12217 0.13749-0.21371 0.28994-0.1984 0.13766 0.01549 0.24451 0.12234 0.24451 0.25948zm0.73285 0.07606-0.15297 1.5116-0.54942-0.06108 0.16794-1.5115c0.0153-0.12217 0.15245-0.21371 0.29011-0.1984 0.15245 0.01531 0.25931 0.13714 0.24434 0.25931zm0.74781 0.07674-0.16776 1.5113-0.53428-0.04594 0.16777-1.5263c0.0151-0.12269 0.13748-0.19891 0.28993-0.1836 0.13766 0.01549 0.25966 0.12234 0.24434 0.24451zm-7.0376 2.5797-0.16794 1.512-0.53445-0.04629 0.16794-1.5111c0.0155-0.13766 0.15279-0.21371 0.29028-0.21371 0.13714 0.03046 0.25965 0.13731 0.24417 0.25914zm0.73284 0.09171-0.1528 1.5116-0.54942-0.06126 0.16777-1.5266c0.0153-0.10703 0.1528-0.19857 0.30525-0.18325 0.13766 0.01549 0.25949 0.12234 0.2292 0.25948zm0.74782 0.07606-0.16794 1.5116-0.51897-0.06109 0.1528-1.5115c0.0151-0.12217 0.15246-0.21371 0.28994-0.18308 0.15263 0 0.25965 0.12217 0.24417 0.244zm0.74816 0.07709-0.16794 1.5109-0.53445-0.04594 0.16828-1.5113c0-0.13766 0.13714-0.21388 0.28994-0.21388 0.15263 0.0308 0.25914 0.13766 0.24417 0.26017zm0.73284 0.09137-0.16794 1.5111-0.51896-0.06126 0.15245-1.5263c0.0153-0.10737 0.1528-0.19891 0.29011-0.18343 0.1528 0.01531 0.25966 0.12217 0.24434 0.25983zm0.74816 0.07606-0.16828 1.5116-0.53411-0.0616 0.16794-1.5109c0.0153-0.12183 0.13732-0.21371 0.29011-0.19891 0.15263 0.01531 0.25948 0.138 0.24434 0.25983zm0.74782 0.07674-0.18291 1.5111-0.51914-0.04543 0.15246-1.5116c0.0305-0.13731 0.15262-0.21354 0.30542-0.21354 0.13748 0.03028 0.24417 0.13714 0.24417 0.25948zm0.73284 0.09102-0.16794 1.5118-0.53445-0.06108 0.16812-1.5269c0.0151-0.10651 0.13714-0.19805 0.28993-0.18257 0.15263 0.01497 0.25966 0.12182 0.24434 0.25879zm0.74799 0.07674-0.18308 1.5111-0.51914-0.06091 0.16812-1.5116c0.0151-0.12182 0.13714-0.21337 0.29011-0.19805 0.13714 0.01497 0.24399 0.13714 0.24399 0.25948zm0.73285 0.07623-0.1528 1.5113-0.54942-0.06091 0.16777-1.5118c0.0155-0.12165 0.13765-0.19805 0.29011-0.19805 0.15297 0.03028 0.25948 0.13731 0.24434 0.25948zm-7.0378 2.5802-0.15246 1.5111-0.54959-0.06126 0.16777-1.4958c0.0153-0.13731 0.13748-0.21354 0.28994-0.21354 0.1528 0.0308 0.25965 0.13714 0.24434 0.25948zm0.74816 0.09137-0.16794 1.5115-0.53445-0.06091 0.16794-1.5118c0.0153-0.12182 0.1528-0.21337 0.29028-0.19788 0.13748 0.01531 0.25948 0.12182 0.24417 0.25914zm0.73267 0.0764-0.15263 1.5111-0.54959-0.06074 0.16794-1.5118c0.0153-0.12182 0.1528-0.21319 0.30543-0.19805 0.13731 0.01531 0.24434 0.13714 0.22885 0.25948zm0.74799 0.07623-0.1676 1.5113-0.53445-0.06091 0.16794-1.4963c0.015-0.13714 0.15246-0.21354 0.28994-0.21354 0.1528 0.03063 0.25948 0.13731 0.24417 0.25948zm0.74816 0.09188-0.16794 1.4956-0.53445-0.0456 0.1528-1.5268c0.0155-0.122 0.15262-0.19822 0.30542-0.18291 0.15245 0.01514 0.25965 0.12182 0.24417 0.25965zm0.73267 0.06091-0.16777 1.5263-0.51913-0.06091 0.15262-1.5109c0.0152-0.12251 0.1528-0.21406 0.29011-0.19891 0.15263 0.01549 0.25949 0.13714 0.24417 0.24451zm0.74833 0.09154-0.16828 1.5109-0.53411-0.06091 0.16794-1.5108c0.0153-0.12269 0.13749-0.19891 0.28994-0.19891 0.1528 0.03046 0.25966 0.13783 0.24451 0.25965zm0.73268 0.09154-0.16794 1.4965-0.51914-0.04611 0.1528-1.5266c0.0153-0.12217 0.15245-0.19874 0.30525-0.18308 0.13731 0.01531 0.24417 0.12234 0.22903 0.25931zm0.74798 0.06091-0.16776 1.5271-0.53428-0.06143 0.16777-1.5111c0.0151-0.12234 0.13748-0.21388 0.28994-0.19857 0.15262 0.01531 0.25965 0.13766 0.24433 0.244zm0.74816 0.09154-0.18342 1.5118-0.51896-0.06126 0.16794-1.5113c0.0153-0.12234 0.13731-0.21354 0.29011-0.19857 0.13731 0.03063 0.24433 0.13748 0.24433 0.25931zm-5.2366-13.968-0.16759 1.5108-0.53445-0.06108 0.16776-1.5113c0.0155-0.12217 0.13749-0.21371 0.29029-0.19874 0.15262 0.01549 0.25931 0.12269 0.24399 0.26034zm3.9388-2.4434-0.10668 0.93159-0.90079-0.10703 0.10669-0.93141c0.0153-0.25914 0.24434-0.45805 0.50382-0.41159 0.24451 0.01531 0.41228 0.244 0.39696 0.51845zm1.5419 0.16846-0.10685 0.9309-0.90062-0.10686 0.10651-0.9309c0.031-0.25983 0.25966-0.44291 0.504-0.41245 0.24434 0.01531 0.42759 0.244 0.39696 0.51931zm-3.099-0.35137-0.0919 0.93124-0.90062-0.09137 0.0919-0.93141c0.0305-0.25931 0.25914-0.45805 0.50348-0.42777 0.24434 0.0308 0.42776 0.25983 0.39713 0.51931zm3.5417 1.8929 0.28994-2.6254-5.2056-0.56508-0.29011 2.6254zm-8.3507 12.503 8.6102 0.94673-0.0611 0.53428-8.61-0.9469zm0.3512-3.2819 8.6254 0.94621-0.0764 0.53428-8.61-0.94621zm0.36634-3.2671 8.6102 0.94656-0.0611 0.51879-8.61-0.9309zm0.35119-3.2826 8.6102 0.94673-0.0458 0.53462-8.6257-0.94673zm0.35119-3.2669 8.6255 0.93124-0.0613 0.53445-8.61-0.94656zm1.5418-2.8395 6.1981 0.67176 0.0458-0.45771-6.1981-0.67193zm-3.3278 19.22 8.6099 0.94673-0.0454 0.51896-8.6259-0.94656zm3.6026 6.1828c4.2288 0 7.8775 1.6792 9.3582 4.0605h-18.747c1.5115-2.3813 5.1447-4.0605 9.3888-4.0605zm6.4578-20.899-0.24434 2.2897-8.1064-0.8853 0.24416-2.2899 8.1066 0.88547"
             id="path342" />
          <path
             d="m-145.59-14.725c-0.0155-0.01531-0.0155-0.0308-0.0306-0.04612zm-4.5494 1.0686c-0.0458-0.04577-0.10686-0.0764-0.16777-0.10668 0.0609 0.03028 0.122 0.06091 0.16777 0.10668zm-0.9309-1.3889c0.0609 0 0.10669 0 0.16777 0.01497-0.0611-0.01497-0.10686-0.01497-0.16777-0.01497zm-1.0231-0.30577c0.0611 0.01549 0.122 0.04612 0.19823 0.0764-0.0762-0.03028-0.13714-0.06091-0.19823-0.0764zm-4.2284 1.7558-5.8474 0.06109 0.77896-0.94638 0.28994-0.33605 0.18359-0.22868 0.28943-0.33622 0.18325-0.22868 0.27497-0.32074 3.8624-4.6409 3.8931 4.5647c-0.0311 0.03028-0.0769 0.07623-0.1072 0.10651l2.458-2.2899v-0.06091 0.06091c0.48834 0.42759 0.97667 0.85519 1.4654 1.267 0.33605-0.53393 0.9161-1.206 1.6489-1.1293 1.267 0.04543 1.4504 1.9998 1.4504 1.9998l-0.6721 0.01531 0.0153 0.38182c0.24451 0.244 0.42742 0.54942 0.53428 0.88496 0.0151 0.01531 0.0151 0.0308 0.0306 0.04612l0.0461 0.06074 0.0153 0.04577c0.0305 0.06126 0.0458 0.12251 0.0915 0.19874l-2.7024 0.01531c0.90113 0 1.8012-0.01531 2.7024-0.01531l-0.0458-0.07623-0.0306-0.07657-0.0151-0.04594c0.0305 0.06126 0.0458 0.12251 0.0915 0.19874 0.0304 0.09154 0.13714 0.35085 0.15245 0.44256l1.4196 0.0616c0.22937 0.06091 0.35119 0.0456 0.50382 0.79342l-4.3962 0.03063c0.015 0.07606-2.0764-0.03063-2.0764-0.03063l-4.458-0.0456s0-0.27497-0.0305-0.39731l-1.9996-0.03029"
             id="path344" />
          <path
             d="m-151.15-25.672h-0.70187v-0.244c-0.80959 0.07623-1.649 0.10686-2.4735 0.12217v1.4502h3.1754zm-7.0685-0.25931v0.25931h-0.70204v1.3284h3.1909v-1.4655c-0.82456-0.01514-1.6488-0.06074-2.4888-0.12217zm10.335 1.9236v0.45822h-2.3358v2.4577h1.0078l-0.70204 0.22868v7.801h-1.5421v-7.7858l-0.71736-0.24382h1.0228v-2.4577h-7.7705v2.4577h1.023l-0.70204 0.22868v7.801h-1.5574v-7.7858l-0.6869-0.24382h1.0071v-2.4577h-2.3357v-0.45822h-0.62565v-0.33588h2.9613v-1.3284h-0.70221v-0.51896c-0.96136-0.13731-1.9537-0.30508-2.9462-0.50382v-1.1296c-0.36668-0.06091-0.74799-0.13731-1.1298-0.22885v-0.91644c-0.42743-0.07606-0.86982-0.16777-1.2972-0.25896v-0.8249c7.3431 1.2368 14.594 1.1603 21.754 0v0.8249c-0.42759 0.0912-0.85536 0.18291-1.2976 0.25896v0.91644c-0.36668 0.09154-0.7485 0.16794-1.1296 0.244v1.1145c-0.96187 0.21423-1.9545 0.39696-2.9464 0.53428v0.48851h-0.68759v1.3284h2.9469v0.33588h-0.61102"
             id="path346" />
        </g>
      </g>
      <rect
         x="2.7931e-6"
         y="11.25"
         width="137.58"
         height="63.5"
         fill="#3e382f"
         fill-opacity=".76031"
         stroke-opacity=".82206"
         stroke-width="1.0583"
         style="paint-order:stroke fill markers"
         id="rect352" />
    </g>
  </g>
</svg>
